<svg width="186" height="185" viewBox="0 0 186 185" fill="none" xmlns="http://www.w3.org/2000/svg">
<path d="M4.0544 118.49C-1.33508 100.86 2.73399 54.5689 31.7549 22.44C67.9586 -8.75002 108.079 5.37049 124.186 11.2892C140.294 17.208 157.343 29.3588 167.473 41.9244C181.615 65.5511 181.965 82.4675 182.212 94.4355C182.527 109.685 178.393 125.149 169.445 137.405C152.409 160.738 133.202 182.24 101.941 182.886C82.2215 183.293 56.3346 176.15 40.6597 164.954C28.0098 155.918 11.6281 143.265 4.0544 118.49Z" fill="white"/>
<path d="M9.95719 119.76C4.69693 102.553 8.66844 57.3716 36.9935 26.0131C72.3291 -4.42908 111.487 9.35286 127.209 15.1297C142.93 20.9065 159.571 32.766 169.457 45.0303C183.26 68.0905 183.602 84.6013 183.843 96.2823C184.15 111.166 180.115 126.26 171.382 138.221C154.755 160.995 136.008 181.981 105.496 182.612C86.2501 183.009 60.9839 176.038 45.6848 165.11C33.3382 156.291 17.3493 143.941 9.95719 119.76Z" fill="#00C5CE"/>
<path d="M69.8382 46.386C72.0089 46.386 73.6075 46.8187 74.6342 47.684C75.6755 48.5493 76.1962 49.708 76.1962 51.16C76.1962 52.0987 75.9615 52.9567 75.4922 53.734C75.0229 54.4967 74.3042 55.1127 73.3362 55.582C72.3829 56.0367 71.2022 56.264 69.7942 56.264C68.7089 56.264 67.6382 56.1247 66.5822 55.846C65.5409 55.5527 64.6535 55.142 63.9202 54.614L65.3282 51.886C65.9149 52.326 66.5895 52.6707 67.3522 52.92C68.1149 53.1547 68.8995 53.272 69.7062 53.272C70.6009 53.272 71.3049 53.096 71.8182 52.744C72.3315 52.392 72.5882 51.9007 72.5882 51.27C72.5882 50.61 72.3169 50.1113 71.7742 49.774C71.2462 49.4367 70.3222 49.268 69.0022 49.268H65.0642L65.8562 40.6H75.2502V43.46H68.8262L68.5842 46.386H69.8382ZM92.2326 55.428C91.8953 55.6773 91.4773 55.868 90.9786 56C90.4946 56.1173 89.9813 56.176 89.4386 56.176C88.0306 56.176 86.938 55.8167 86.1606 55.098C85.398 54.3793 85.0166 53.3233 85.0166 51.93V47.068H83.1906V44.428H85.0166V41.546H88.4486V44.428H91.3966V47.068H88.4486V51.886C88.4486 52.3847 88.5733 52.7733 88.8226 53.052C89.0866 53.316 89.4533 53.448 89.9226 53.448C90.4653 53.448 90.9273 53.3013 91.3086 53.008L92.2326 55.428ZM94.1592 44.164H97.5912V56H94.1592V44.164ZM95.8752 42.514C95.2445 42.514 94.7312 42.3307 94.3352 41.964C93.9392 41.5973 93.7412 41.1427 93.7412 40.6C93.7412 40.0573 93.9392 39.6027 94.3352 39.236C94.7312 38.8693 95.2445 38.686 95.8752 38.686C96.5059 38.686 97.0192 38.862 97.4152 39.214C97.8112 39.566 98.0092 40.006 98.0092 40.534C98.0092 41.106 97.8112 41.5827 97.4152 41.964C97.0192 42.3307 96.5059 42.514 95.8752 42.514ZM107.772 43.988C108.872 43.988 109.87 44.2447 110.764 44.758C111.674 45.2567 112.385 45.968 112.898 46.892C113.412 47.8013 113.668 48.8647 113.668 50.082C113.668 51.2993 113.412 52.37 112.898 53.294C112.385 54.2033 111.674 54.9147 110.764 55.428C109.87 55.9267 108.872 56.176 107.772 56.176C106.262 56.176 105.074 55.6993 104.208 54.746V60.268H100.776V44.164H104.054V45.528C104.905 44.5013 106.144 43.988 107.772 43.988ZM107.178 53.36C108.058 53.36 108.777 53.0667 109.334 52.48C109.906 51.8787 110.192 51.0793 110.192 50.082C110.192 49.0847 109.906 48.2927 109.334 47.706C108.777 47.1047 108.058 46.804 107.178 46.804C106.298 46.804 105.572 47.1047 105 47.706C104.443 48.2927 104.164 49.0847 104.164 50.082C104.164 51.0793 104.443 51.8787 105 52.48C105.572 53.0667 106.298 53.36 107.178 53.36ZM119.948 56.176C118.965 56.176 118.005 56.0587 117.066 55.824C116.127 55.5747 115.379 55.2667 114.822 54.9L115.966 52.436C116.494 52.7733 117.132 53.052 117.88 53.272C118.628 53.4773 119.361 53.58 120.08 53.58C121.532 53.58 122.258 53.2207 122.258 52.502C122.258 52.1647 122.06 51.9227 121.664 51.776C121.268 51.6293 120.659 51.5047 119.838 51.402C118.87 51.2553 118.071 51.0867 117.44 50.896C116.809 50.7053 116.259 50.368 115.79 49.884C115.335 49.4 115.108 48.7107 115.108 47.816C115.108 47.068 115.321 46.408 115.746 45.836C116.186 45.2493 116.817 44.7947 117.638 44.472C118.474 44.1493 119.457 43.988 120.586 43.988C121.422 43.988 122.251 44.0833 123.072 44.274C123.908 44.45 124.597 44.6993 125.14 45.022L123.996 47.464C122.955 46.8773 121.818 46.584 120.586 46.584C119.853 46.584 119.303 46.6867 118.936 46.892C118.569 47.0973 118.386 47.3613 118.386 47.684C118.386 48.0507 118.584 48.3073 118.98 48.454C119.376 48.6007 120.007 48.74 120.872 48.872C121.84 49.0333 122.632 49.2093 123.248 49.4C123.864 49.576 124.399 49.906 124.854 50.39C125.309 50.874 125.536 51.5487 125.536 52.414C125.536 53.1473 125.316 53.8 124.876 54.372C124.436 54.944 123.791 55.3913 122.94 55.714C122.104 56.022 121.107 56.176 119.948 56.176ZM84.1067 74.428H87.1427V77.068H84.1947V86H80.7627V77.068H78.9367V74.428H80.7627V73.9C80.7627 72.5507 81.1587 71.48 81.9507 70.688C82.7574 69.896 83.8867 69.5 85.3387 69.5C85.8521 69.5 86.3361 69.5587 86.7907 69.676C87.2601 69.7787 87.6487 69.9327 87.9567 70.138L87.0547 72.624C86.6587 72.3453 86.1967 72.206 85.6687 72.206C84.6274 72.206 84.1067 72.778 84.1067 73.922V74.428ZM94.3342 86.176C93.0875 86.176 91.9655 85.9193 90.9682 85.406C89.9855 84.878 89.2155 84.152 88.6582 83.228C88.1008 82.304 87.8222 81.2553 87.8222 80.082C87.8222 78.9087 88.1008 77.86 88.6582 76.936C89.2155 76.012 89.9855 75.2933 90.9682 74.78C91.9655 74.252 93.0875 73.988 94.3342 73.988C95.5808 73.988 96.6955 74.252 97.6782 74.78C98.6608 75.2933 99.4308 76.012 99.9882 76.936C100.545 77.86 100.824 78.9087 100.824 80.082C100.824 81.2553 100.545 82.304 99.9882 83.228C99.4308 84.152 98.6608 84.878 97.6782 85.406C96.6955 85.9193 95.5808 86.176 94.3342 86.176ZM94.3342 83.36C95.2142 83.36 95.9328 83.0667 96.4902 82.48C97.0622 81.8787 97.3482 81.0793 97.3482 80.082C97.3482 79.0847 97.0622 78.2927 96.4902 77.706C95.9328 77.1047 95.2142 76.804 94.3342 76.804C93.4542 76.804 92.7282 77.1047 92.1562 77.706C91.5842 78.2927 91.2982 79.0847 91.2982 80.082C91.2982 81.0793 91.5842 81.8787 92.1562 82.48C92.7282 83.0667 93.4542 83.36 94.3342 83.36ZM106.396 75.726C106.807 75.154 107.357 74.7213 108.046 74.428C108.75 74.1347 109.557 73.988 110.466 73.988V77.156C110.085 77.1267 109.828 77.112 109.696 77.112C108.714 77.112 107.944 77.3907 107.386 77.948C106.829 78.4907 106.55 79.312 106.55 80.412V86H103.118V74.164H106.396V75.726ZM69.4959 103.988C70.9772 103.988 72.1506 104.428 73.0159 105.308C73.8959 106.173 74.3359 107.479 74.3359 109.224V116H70.9039V109.752C70.9039 108.813 70.7059 108.117 70.3099 107.662C69.9286 107.193 69.3786 106.958 68.6599 106.958C67.8532 106.958 67.2152 107.222 66.7459 107.75C66.2766 108.263 66.0419 109.033 66.0419 110.06V116H62.6099V109.752C62.6099 107.889 61.8619 106.958 60.3659 106.958C59.5739 106.958 58.9432 107.222 58.4739 107.75C58.0046 108.263 57.7699 109.033 57.7699 110.06V116H54.3379V104.164H57.6159V105.528C58.0559 105.029 58.5912 104.648 59.2219 104.384C59.8672 104.12 60.5712 103.988 61.3339 103.988C62.1699 103.988 62.9252 104.157 63.5999 104.494C64.2746 104.817 64.8172 105.293 65.2279 105.924C65.7119 105.308 66.3206 104.831 67.0539 104.494C67.8019 104.157 68.6159 103.988 69.4959 103.988ZM77.4121 104.164H80.8441V116H77.4121V104.164ZM79.1281 102.514C78.4975 102.514 77.9841 102.331 77.5881 101.964C77.1921 101.597 76.9941 101.143 76.9941 100.6C76.9941 100.057 77.1921 99.6027 77.5881 99.236C77.9841 98.8693 78.4975 98.686 79.1281 98.686C79.7588 98.686 80.2721 98.862 80.6681 99.214C81.0641 99.566 81.2621 100.006 81.2621 100.534C81.2621 101.106 81.0641 101.583 80.6681 101.964C80.2721 102.331 79.7588 102.514 79.1281 102.514ZM91.2233 103.988C92.69 103.988 93.8706 104.428 94.7653 105.308C95.6746 106.188 96.1293 107.493 96.1293 109.224V116H92.6973V109.752C92.6973 108.813 92.492 108.117 92.0813 107.662C91.6706 107.193 91.0766 106.958 90.2993 106.958C89.434 106.958 88.7446 107.229 88.2313 107.772C87.718 108.3 87.4613 109.092 87.4613 110.148V116H84.0293V104.164H87.3073V105.55C87.762 105.051 88.3266 104.67 89.0013 104.406C89.676 104.127 90.4166 103.988 91.2233 103.988ZM111.425 99.676V116H108.147V114.636C107.296 115.663 106.064 116.176 104.451 116.176C103.336 116.176 102.324 115.927 101.415 115.428C100.52 114.929 99.8165 114.218 99.3032 113.294C98.7898 112.37 98.5332 111.299 98.5332 110.082C98.5332 108.865 98.7898 107.794 99.3032 106.87C99.8165 105.946 100.52 105.235 101.415 104.736C102.324 104.237 103.336 103.988 104.451 103.988C105.962 103.988 107.142 104.465 107.993 105.418V99.676H111.425ZM105.045 113.36C105.91 113.36 106.629 113.067 107.201 112.48C107.773 111.879 108.059 111.079 108.059 110.082C108.059 109.085 107.773 108.293 107.201 107.706C106.629 107.105 105.91 106.804 105.045 106.804C104.165 106.804 103.439 107.105 102.867 107.706C102.295 108.293 102.009 109.085 102.009 110.082C102.009 111.079 102.295 111.879 102.867 112.48C103.439 113.067 104.165 113.36 105.045 113.36ZM118.364 104.428H121.4V107.068H118.452V116H115.02V107.068H113.194V104.428H115.02V103.9C115.02 102.551 115.416 101.48 116.208 100.688C117.014 99.896 118.144 99.5 119.596 99.5C120.109 99.5 120.593 99.5587 121.048 99.676C121.517 99.7787 121.906 99.9327 122.214 100.138L121.312 102.624C120.916 102.345 120.454 102.206 119.926 102.206C118.884 102.206 118.364 102.778 118.364 103.922V104.428ZM135.033 104.164V116H131.777V114.592C131.323 115.105 130.78 115.501 130.149 115.78C129.519 116.044 128.837 116.176 128.103 116.176C126.549 116.176 125.317 115.729 124.407 114.834C123.498 113.939 123.043 112.612 123.043 110.852V104.164H126.475V110.346C126.475 112.253 127.275 113.206 128.873 113.206C129.695 113.206 130.355 112.942 130.853 112.414C131.352 111.871 131.601 111.072 131.601 110.016V104.164H135.033ZM138.213 99.676H141.645V116H138.213V99.676ZM74.1497 140.126C74.1497 140.17 74.1277 140.478 74.0837 141.05H65.1297C65.291 141.783 65.6723 142.363 66.2737 142.788C66.875 143.213 67.623 143.426 68.5177 143.426C69.1337 143.426 69.6763 143.338 70.1457 143.162C70.6297 142.971 71.077 142.678 71.4877 142.282L73.3137 144.262C72.199 145.538 70.571 146.176 68.4297 146.176C67.095 146.176 65.9143 145.919 64.8877 145.406C63.861 144.878 63.069 144.152 62.5117 143.228C61.9543 142.304 61.6757 141.255 61.6757 140.082C61.6757 138.923 61.947 137.882 62.4897 136.958C63.047 136.019 63.8023 135.293 64.7557 134.78C65.7237 134.252 66.8017 133.988 67.9897 133.988C69.1483 133.988 70.197 134.237 71.1357 134.736C72.0743 135.235 72.8077 135.953 73.3357 136.892C73.8783 137.816 74.1497 138.894 74.1497 140.126ZM68.0117 136.584C67.2343 136.584 66.5817 136.804 66.0537 137.244C65.5257 137.684 65.203 138.285 65.0857 139.048H70.9157C70.7983 138.3 70.4757 137.706 69.9477 137.266C69.4197 136.811 68.7743 136.584 68.0117 136.584ZM80.8863 133.988C82.7197 133.988 84.1277 134.428 85.1103 135.308C86.093 136.173 86.5843 137.486 86.5843 139.246V146H83.3723V144.526C82.727 145.626 81.5243 146.176 79.7643 146.176C78.855 146.176 78.063 146.022 77.3883 145.714C76.7283 145.406 76.2223 144.981 75.8703 144.438C75.5183 143.895 75.3423 143.279 75.3423 142.59C75.3423 141.49 75.753 140.625 76.5743 139.994C77.4103 139.363 78.6937 139.048 80.4243 139.048H83.1523C83.1523 138.3 82.925 137.728 82.4703 137.332C82.0157 136.921 81.3337 136.716 80.4243 136.716C79.7937 136.716 79.1703 136.819 78.5543 137.024C77.953 137.215 77.4397 137.479 77.0143 137.816L75.7823 135.418C76.4277 134.963 77.1977 134.611 78.0923 134.362C79.0017 134.113 79.933 133.988 80.8863 133.988ZM80.6223 143.866C81.209 143.866 81.7297 143.734 82.1843 143.47C82.639 143.191 82.9617 142.788 83.1523 142.26V141.05H80.7983C79.3903 141.05 78.6863 141.512 78.6863 142.436C78.6863 142.876 78.855 143.228 79.1923 143.492C79.5443 143.741 80.021 143.866 80.6223 143.866ZM97.3244 145.428C96.9871 145.677 96.5691 145.868 96.0704 146C95.5864 146.117 95.0731 146.176 94.5304 146.176C93.1224 146.176 92.0298 145.817 91.2524 145.098C90.4898 144.379 90.1084 143.323 90.1084 141.93V137.068H88.2824V134.428H90.1084V131.546H93.5404V134.428H96.4884V137.068H93.5404V141.886C93.5404 142.385 93.6651 142.773 93.9144 143.052C94.1784 143.316 94.5451 143.448 95.0144 143.448C95.5571 143.448 96.0191 143.301 96.4004 143.008L97.3244 145.428ZM99.251 134.164H102.683V146H99.251V134.164ZM100.967 132.514C100.336 132.514 99.823 132.331 99.427 131.964C99.031 131.597 98.833 131.143 98.833 130.6C98.833 130.057 99.031 129.603 99.427 129.236C99.823 128.869 100.336 128.686 100.967 128.686C101.598 128.686 102.111 128.862 102.507 129.214C102.903 129.566 103.101 130.006 103.101 130.534C103.101 131.106 102.903 131.583 102.507 131.964C102.111 132.331 101.598 132.514 100.967 132.514ZM113.062 133.988C114.529 133.988 115.71 134.428 116.604 135.308C117.514 136.188 117.968 137.493 117.968 139.224V146H114.536V139.752C114.536 138.813 114.331 138.117 113.92 137.662C113.51 137.193 112.916 136.958 112.138 136.958C111.273 136.958 110.584 137.229 110.07 137.772C109.557 138.3 109.3 139.092 109.3 140.148V146H105.868V134.164H109.146V135.55C109.601 135.051 110.166 134.67 110.84 134.406C111.515 134.127 112.256 133.988 113.062 133.988ZM133.418 134.164V144.02C133.418 146.191 132.853 147.804 131.724 148.86C130.595 149.916 128.945 150.444 126.774 150.444C125.63 150.444 124.545 150.305 123.518 150.026C122.491 149.747 121.641 149.344 120.966 148.816L122.33 146.352C122.829 146.763 123.459 147.085 124.222 147.32C124.985 147.569 125.747 147.694 126.51 147.694C127.698 147.694 128.571 147.423 129.128 146.88C129.7 146.352 129.986 145.545 129.986 144.46V143.954C129.091 144.937 127.845 145.428 126.246 145.428C125.161 145.428 124.163 145.193 123.254 144.724C122.359 144.24 121.648 143.565 121.12 142.7C120.592 141.835 120.328 140.837 120.328 139.708C120.328 138.579 120.592 137.581 121.12 136.716C121.648 135.851 122.359 135.183 123.254 134.714C124.163 134.23 125.161 133.988 126.246 133.988C127.962 133.988 129.267 134.553 130.162 135.682V134.164H133.418ZM126.928 142.612C127.837 142.612 128.578 142.348 129.15 141.82C129.737 141.277 130.03 140.573 130.03 139.708C130.03 138.843 129.737 138.146 129.15 137.618C128.578 137.075 127.837 136.804 126.928 136.804C126.019 136.804 125.271 137.075 124.684 137.618C124.097 138.146 123.804 138.843 123.804 139.708C123.804 140.573 124.097 141.277 124.684 141.82C125.271 142.348 126.019 142.612 126.928 142.612Z" fill="white"/>
</svg>
