<svg width="191" height="191" viewBox="0 0 191 191" fill="none" xmlns="http://www.w3.org/2000/svg">
<path d="M54.6231 150.557C43.4299 142.481 24.907 113.031 27.6747 80.7355C35.1512 45.749 65.4694 36.0136 77.7548 32.2537C90.0402 28.4938 105.708 28.0247 117.435 30.9347C136.563 38.6254 144.427 48.5563 149.991 55.5821C157.08 64.5344 161.613 75.6284 161.823 86.9869C162.222 108.613 160.498 130.129 142.146 144.662C130.57 153.83 111.898 161.285 97.4826 161.701C85.8488 162.037 70.3526 161.905 54.6231 150.557Z" fill="#FFBFCA"/>
<path d="M61.1161 104.264C60.0748 104.264 59.1141 104.073 58.2341 103.692C57.3688 103.296 56.6575 102.739 56.1001 102.02L58.0801 99.644C58.9161 100.773 59.8695 101.338 60.9401 101.338C62.3921 101.338 63.1181 100.487 63.1181 98.786V91.46H57.7061V88.6H66.6601V98.588C66.6601 100.48 66.1908 101.903 65.2521 102.856C64.3135 103.795 62.9348 104.264 61.1161 104.264ZM81.8625 92.164V104H78.6065V102.592C78.1518 103.105 77.6092 103.501 76.9785 103.78C76.3478 104.044 75.6658 104.176 74.9325 104.176C73.3778 104.176 72.1458 103.729 71.2365 102.834C70.3272 101.939 69.8725 100.612 69.8725 98.852V92.164H73.3045V98.346C73.3045 100.253 74.1038 101.206 75.7025 101.206C76.5238 101.206 77.1838 100.942 77.6825 100.414C78.1812 99.8713 78.4305 99.072 78.4305 98.016V92.164H81.8625ZM100.2 91.988C101.681 91.988 102.855 92.428 103.72 93.308C104.6 94.1733 105.04 95.4786 105.04 97.224V104H101.608V97.752C101.608 96.8133 101.41 96.1166 101.014 95.662C100.633 95.1926 100.083 94.958 99.364 94.958C98.5573 94.958 97.9193 95.222 97.45 95.75C96.9807 96.2633 96.746 97.0333 96.746 98.06V104H93.314V97.752C93.314 95.8893 92.566 94.958 91.07 94.958C90.278 94.958 89.6473 95.222 89.178 95.75C88.7087 96.2633 88.474 97.0333 88.474 98.06V104H85.042V92.164H88.32V93.528C88.76 93.0293 89.2953 92.648 89.926 92.384C90.5713 92.12 91.2753 91.988 92.038 91.988C92.874 91.988 93.6293 92.1566 94.304 92.494C94.9787 92.8166 95.5213 93.2933 95.932 93.924C96.416 93.308 97.0247 92.8313 97.758 92.494C98.506 92.1566 99.32 91.988 100.2 91.988ZM115.112 91.988C116.212 91.988 117.21 92.2446 118.104 92.758C119.014 93.2566 119.725 93.968 120.238 94.892C120.752 95.8013 121.008 96.8646 121.008 98.082C121.008 99.2993 120.752 100.37 120.238 101.294C119.725 102.203 119.014 102.915 118.104 103.428C117.21 103.927 116.212 104.176 115.112 104.176C113.602 104.176 112.414 103.699 111.548 102.746V108.268H108.116V92.164H111.394V93.528C112.245 92.5013 113.484 91.988 115.112 91.988ZM114.518 101.36C115.398 101.36 116.117 101.067 116.674 100.48C117.246 99.8786 117.532 99.0793 117.532 98.082C117.532 97.0846 117.246 96.2926 116.674 95.706C116.117 95.1046 115.398 94.804 114.518 94.804C113.638 94.804 112.912 95.1046 112.34 95.706C111.783 96.2926 111.504 97.0846 111.504 98.082C111.504 99.0793 111.783 99.8786 112.34 100.48C112.912 101.067 113.638 101.36 114.518 101.36ZM134.731 92.164L129.385 104.726C128.843 106.09 128.168 107.051 127.361 107.608C126.569 108.165 125.609 108.444 124.479 108.444C123.863 108.444 123.255 108.349 122.653 108.158C122.052 107.967 121.561 107.703 121.179 107.366L122.433 104.924C122.697 105.159 122.998 105.342 123.335 105.474C123.687 105.606 124.032 105.672 124.369 105.672C124.839 105.672 125.22 105.555 125.513 105.32C125.807 105.1 126.071 104.726 126.305 104.198L126.349 104.088L121.223 92.164H124.765L128.087 100.194L131.431 92.164H134.731Z" fill="white"/>
<path d="M118.954 28.3605C127.528 24.9308 134.191 28.6961 141.564 31.8298C152.143 31.8298 154.986 41.6844 154.484 51.21C153.554 68.8879 135.35 66.8655 123.261 61.1393C113.461 56.4971 105.409 48.4586 106.034 37.2132C106.38 30.9845 114.822 30.0132 118.954 28.3605Z" fill="white" fill-opacity="0.3"/>
<path d="M62.3244 112.265C44.5986 106.948 7.66295 118.641 25.9566 142.651C28.0872 149.043 28.6064 148.442 32.8952 153.957C37.2507 159.556 41.489 169.568 50.1819 169.568H70.5789C75.0025 169.568 82.5909 171.053 86.3103 167.953C92.3605 162.912 100.434 159.306 102.341 150.727C104.247 142.147 103.364 136.078 97.0173 129.731C93.9523 126.666 91.6271 122.44 87.5664 120.879C79.2426 117.677 70.9471 114.852 62.3244 112.265Z" fill="white" fill-opacity="0.3"/>
</svg>
