<svg width="315" height="49" viewBox="0 0 315 49" fill="none" xmlns="http://www.w3.org/2000/svg">
  <path
    d="M122.421 34L122.397 23.92L117.453 32.224H115.701L110.781 24.136V34H107.133V17.2H110.349L116.637 27.64L122.829 17.2H126.021L126.069 34H122.421ZM136.031 34.192C134.655 34.192 133.415 33.912 132.311 33.352C131.223 32.776 130.367 31.984 129.743 30.976C129.135 29.968 128.831 28.824 128.831 27.544C128.831 26.264 129.135 25.12 129.743 24.112C130.367 23.104 131.223 22.32 132.311 21.76C133.415 21.184 134.655 20.896 136.031 20.896C137.391 20.896 138.575 21.184 139.583 21.76C140.607 22.32 141.351 23.128 141.815 24.184L138.911 25.744C138.239 24.56 137.271 23.968 136.007 23.968C135.031 23.968 134.223 24.288 133.583 24.928C132.943 25.568 132.623 26.44 132.623 27.544C132.623 28.648 132.943 29.52 133.583 30.16C134.223 30.8 135.031 31.12 136.007 31.12C137.287 31.12 138.255 30.528 138.911 29.344L141.815 30.928C141.351 31.952 140.607 32.752 139.583 33.328C138.575 33.904 137.391 34.192 136.031 34.192ZM147.81 17.968C146.802 18 146.026 18.384 145.482 19.12C144.954 19.856 144.69 21.128 144.69 22.936C144.69 23.528 144.746 23.944 144.858 24.184C144.97 24.408 145.026 24.536 145.026 24.568C144.162 24.568 143.514 24.392 143.082 24.04C142.666 23.672 142.458 23.072 142.458 22.24C142.458 21.104 142.738 20.072 143.298 19.144C143.858 18.2 144.746 17.44 145.962 16.864C147.194 16.288 148.754 16 150.642 16C151.026 16 151.538 16.04 152.178 16.12C153.33 16.232 154.146 16.288 154.626 16.288C155.474 16.288 156.194 16.192 156.786 16C156.738 16.144 156.65 16.464 156.522 16.96C156.394 17.44 156.162 17.856 155.826 18.208C155.506 18.544 155.066 18.768 154.506 18.88C153.562 18.88 152.442 18.728 151.146 18.424L150.138 23.2H153.642L153.258 24.976H149.754L147.81 34H144.354L147.81 17.968ZM155.634 34.144C154.866 34.144 154.242 33.904 153.762 33.424C153.298 32.944 153.066 32.224 153.066 31.264C153.066 30.864 153.13 30.344 153.258 29.704L154.89 22H158.346L156.618 30.16C156.57 30.4 156.546 30.624 156.546 30.832C156.546 31.488 156.786 31.816 157.266 31.816C157.714 31.816 158.098 31.632 158.418 31.264C158.738 30.88 158.994 30.36 159.186 29.704L160.818 22H164.274L162.546 30.16C162.482 30.4 162.45 30.656 162.45 30.928C162.45 31.248 162.522 31.48 162.666 31.624C162.826 31.752 163.082 31.816 163.434 31.816C163.882 31.816 164.266 31.624 164.586 31.24C164.922 30.856 165.186 30.344 165.378 29.704H166.386C165.794 31.432 165.058 32.608 164.178 33.232C163.314 33.84 162.442 34.144 161.562 34.144C160.874 34.144 160.322 33.952 159.906 33.568C159.506 33.184 159.266 32.616 159.186 31.864C158.642 32.744 158.066 33.344 157.458 33.664C156.866 33.984 156.258 34.144 155.634 34.144ZM167.751 34.144C166.983 34.144 166.359 33.904 165.879 33.424C165.415 32.944 165.183 32.224 165.183 31.264C165.183 30.864 165.247 30.344 165.375 29.704L167.943 17.68L171.495 17.2L168.735 30.16C168.671 30.4 168.639 30.656 168.639 30.928C168.639 31.248 168.711 31.48 168.855 31.624C169.015 31.752 169.271 31.816 169.623 31.816C170.087 31.816 170.519 31.624 170.919 31.24C171.319 30.84 171.607 30.328 171.783 29.704H172.791C172.199 31.432 171.439 32.608 170.511 33.232C169.583 33.84 168.663 34.144 167.751 34.144ZM180.437 34.144C179.461 34.144 178.741 33.888 178.277 33.376C177.829 32.848 177.605 32.2 177.605 31.432C177.605 31.096 177.645 30.72 177.725 30.304C177.805 29.872 177.885 29.456 177.965 29.056C178.061 28.656 178.125 28.4 178.157 28.288C178.285 27.728 178.405 27.176 178.517 26.632C178.629 26.088 178.685 25.648 178.685 25.312C178.685 24.496 178.397 24.088 177.821 24.088C177.405 24.088 177.037 24.296 176.717 24.712C176.397 25.112 176.141 25.64 175.949 26.296L174.317 34H170.861L173.405 22H176.861L176.597 23.248C177.397 22.352 178.333 21.904 179.405 21.904C180.221 21.904 180.869 22.128 181.349 22.576C181.829 23.024 182.069 23.704 182.069 24.616C182.069 25.08 182.013 25.6 181.901 26.176C181.789 26.736 181.629 27.424 181.421 28.24C181.293 28.736 181.173 29.224 181.061 29.704C180.965 30.168 180.917 30.536 180.917 30.808C180.917 31.128 180.989 31.376 181.133 31.552C181.277 31.728 181.525 31.816 181.877 31.816C182.357 31.816 182.741 31.648 183.029 31.312C183.317 30.96 183.605 30.424 183.893 29.704H184.901C184.309 31.464 183.621 32.648 182.837 33.256C182.069 33.848 181.269 34.144 180.437 34.144ZM187.323 34.144C186.139 34.144 185.219 33.84 184.563 33.232C183.907 32.608 183.579 31.64 183.579 30.328C183.579 29.224 183.795 28.008 184.227 26.68C184.659 25.352 185.363 24.208 186.339 23.248C187.315 22.272 188.555 21.784 190.059 21.784C191.819 21.784 192.699 22.552 192.699 24.088C192.699 24.984 192.443 25.808 191.931 26.56C191.419 27.312 190.739 27.92 189.891 28.384C189.043 28.832 188.139 29.088 187.179 29.152C187.147 29.632 187.131 29.952 187.131 30.112C187.131 30.896 187.267 31.432 187.539 31.72C187.811 31.992 188.251 32.128 188.859 32.128C189.723 32.128 190.459 31.928 191.067 31.528C191.691 31.128 192.371 30.52 193.107 29.704H193.923C192.147 32.664 189.947 34.144 187.323 34.144ZM187.371 28C187.963 27.968 188.523 27.76 189.051 27.376C189.595 26.992 190.027 26.504 190.347 25.912C190.683 25.32 190.851 24.696 190.851 24.04C190.851 23.384 190.651 23.056 190.251 23.056C189.675 23.056 189.107 23.56 188.547 24.568C188.003 25.576 187.611 26.72 187.371 28ZM195.838 34.144C195.07 34.144 194.422 34 193.894 33.712C193.366 33.408 192.974 33.024 192.718 32.56C192.462 32.08 192.334 31.584 192.334 31.072C192.334 30.544 192.462 30.088 192.718 29.704C192.958 29.304 193.254 29.016 193.606 28.84C194.23 27.72 194.774 26.592 195.238 25.456C195.702 24.304 196.142 23.064 196.558 21.736L200.11 21.256C200.19 23.304 200.326 25.52 200.518 27.904C200.598 28.864 200.638 29.56 200.638 29.992C200.638 30.36 200.606 30.664 200.542 30.904C201.294 30.472 201.87 30.072 202.27 29.704H203.278C202.254 30.888 201.03 31.888 199.606 32.704C199.142 33.2 198.566 33.568 197.878 33.808C197.206 34.032 196.526 34.144 195.838 34.144ZM195.07 32.248C195.662 32.248 196.158 32.072 196.558 31.72C196.958 31.368 197.158 30.8 197.158 30.016C197.158 29.536 197.11 28.864 197.014 28C196.854 26.176 196.75 24.952 196.702 24.328C196.318 25.592 195.67 27.104 194.758 28.864C195.126 29.056 195.31 29.336 195.31 29.704C195.31 30.008 195.206 30.28 194.998 30.52C194.806 30.76 194.558 30.88 194.254 30.88C193.918 30.88 193.702 30.776 193.606 30.568C193.606 31.144 193.718 31.568 193.942 31.84C194.182 32.112 194.558 32.248 195.07 32.248ZM205.002 34.144C204.234 34.144 203.586 34 203.058 33.712C202.53 33.408 202.138 33.024 201.882 32.56C201.626 32.08 201.498 31.584 201.498 31.072C201.498 30.544 201.626 30.088 201.882 29.704C202.122 29.304 202.418 29.016 202.77 28.84C203.394 27.72 203.938 26.592 204.402 25.456C204.866 24.304 205.306 23.064 205.722 21.736L209.274 21.256C209.354 23.304 209.49 25.52 209.682 27.904C209.762 28.864 209.802 29.56 209.802 29.992C209.802 30.968 209.554 31.768 209.058 32.392C208.562 33.016 207.946 33.464 207.21 33.736C206.49 34.008 205.754 34.144 205.002 34.144ZM204.234 32.248C204.826 32.248 205.322 32.072 205.722 31.72C206.122 31.368 206.322 30.8 206.322 30.016C206.322 29.536 206.274 28.864 206.178 28C206.018 26.176 205.914 24.952 205.866 24.328C205.482 25.592 204.834 27.104 203.922 28.864C204.29 29.056 204.474 29.336 204.474 29.704C204.474 30.008 204.37 30.28 204.162 30.52C203.97 30.76 203.722 30.88 203.418 30.88C203.082 30.88 202.866 30.776 202.77 30.568C202.77 31.144 202.882 31.568 203.106 31.84C203.346 32.112 203.722 32.248 204.234 32.248Z"
    fill="black" />
  <g clip-path="url(#clip0_8:2)">
    <g filter="url(#filter0_d_8:2)">
      <path
        d="M234.406 2.24397C231.111 -0.549361 226.21 -0.0468778 223.186 3.05748L222.001 4.27168L220.816 3.05748C217.798 -0.0468778 212.891 -0.549361 209.596 2.24397C205.82 5.45001 205.622 11.2041 209.001 14.6794L220.636 26.6303C220.812 26.8132 221.023 26.9587 221.257 27.0582C221.491 27.1577 221.743 27.209 221.998 27.209C222.253 27.209 222.505 27.1577 222.739 27.0582C222.973 26.9587 223.184 26.8132 223.36 26.6303L234.995 14.6794C238.38 11.2042 238.182 5.45001 234.406 2.24397H234.406Z"
        fill="#DA291C" stroke="#FFC72C" />
    </g>
    <path
      d="M224.861 6.80352C226.015 6.80352 226.951 11.6446 226.951 17.6162H228.623C228.623 11.1849 226.939 5.97153 224.861 5.97153C223.679 5.97153 222.624 7.53839 221.934 9.98842C221.244 7.53851 220.189 5.97165 219.007 5.97165C216.929 5.97165 215.245 11.185 215.245 17.6163H216.917C216.917 11.6446 217.853 6.80364 219.007 6.80364C220.161 6.80364 221.098 11.2723 221.098 16.785H222.77C222.77 11.2723 223.706 6.80364 224.861 6.80364L224.861 6.80352ZM229.461 16.785C229.544 16.785 229.625 16.8095 229.694 16.8553C229.763 16.901 229.816 16.9661 229.848 17.0422C229.88 17.1182 229.888 17.2019 229.871 17.2826C229.855 17.3632 229.815 17.4373 229.756 17.4953C229.697 17.5534 229.622 17.5928 229.541 17.6086C229.46 17.6244 229.375 17.6159 229.299 17.5841C229.222 17.5524 229.157 17.4988 229.111 17.4302C229.065 17.3616 229.041 17.281 229.041 17.1988C229.041 17.1442 229.052 17.0901 229.073 17.0396C229.094 16.9891 229.124 16.9433 229.164 16.9048C229.203 16.8663 229.249 16.8359 229.3 16.8153C229.351 16.7947 229.406 16.7844 229.461 16.785ZM229.461 17.5557C229.532 17.5586 229.603 17.5403 229.663 17.5031C229.724 17.4659 229.772 17.4116 229.802 17.3471C229.831 17.2826 229.84 17.2109 229.828 17.1411C229.816 17.0713 229.784 17.0067 229.734 16.9555C229.685 16.9043 229.621 16.8689 229.552 16.8537C229.482 16.8386 229.409 16.8445 229.343 16.8707C229.277 16.8969 229.22 16.9421 229.179 17.0006C229.139 17.059 229.117 17.1281 229.117 17.1989C229.115 17.2449 229.122 17.2909 229.139 17.334C229.155 17.3772 229.18 17.4166 229.212 17.4499C229.244 17.4832 229.283 17.5098 229.325 17.5279C229.368 17.5461 229.414 17.5555 229.461 17.5556V17.5557ZM229.298 16.9572H229.487C229.602 16.9572 229.656 17.0029 229.656 17.0959C229.657 17.1131 229.655 17.1303 229.649 17.1465C229.643 17.1627 229.634 17.1775 229.622 17.1899C229.61 17.2023 229.595 17.2122 229.579 17.2187C229.563 17.2253 229.546 17.2285 229.529 17.2281L229.667 17.4432H229.586L229.454 17.2344H229.374V17.4432H229.298V16.9572H229.298ZM229.374 17.173H229.453C229.52 17.173 229.581 17.1697 229.581 17.0927C229.581 17.0281 229.525 17.018 229.474 17.018H229.374L229.374 17.173Z"
      fill="#FFC72C" />
  </g>
  <defs>
    <filter id="filter0_d_8:2" x="200.107" y="-3.08868" width="43.787" height="39.7977" filterUnits="userSpaceOnUse"
      color-interpolation-filters="sRGB">
      <feFlood flood-opacity="0" result="BackgroundImageFix" />
      <feColorMatrix in="SourceAlpha" type="matrix" values="0 0 0 0 0 0 0 0 0 0 0 0 0 0 0 0 0 0 127 0"
        result="hardAlpha" />
      <feOffset dy="3" />
      <feGaussianBlur stdDeviation="3" />
      <feColorMatrix type="matrix" values="0 0 0 0 0.152941 0 0 0 0 0.145098 0 0 0 0 0.121569 0 0 0 0.345 0" />
      <feBlend mode="normal" in2="BackgroundImageFix" result="effect1_dropShadow_8:2" />
      <feBlend mode="normal" in="SourceGraphic" in2="effect1_dropShadow_8:2" result="shape" />
    </filter>
    <clipPath id="clip0_8:2">
      <rect width="32" height="28" fill="white" transform="translate(206)" />
    </clipPath>
  </defs>
</svg>