<svg width="188" height="188" viewBox="0 0 188 188" fill="none" xmlns="http://www.w3.org/2000/svg">
<g filter="url(#filter0_d_7:168)">
<path d="M2.95719 113.76C-2.30307 96.5526 1.66844 51.3716 29.9935 20.0131C65.3291 -10.4291 104.487 3.35286 120.209 9.12968C135.93 14.9065 152.571 26.766 162.457 39.0303C176.26 62.0905 176.602 78.6013 176.843 90.2823C177.15 105.166 173.115 120.26 164.382 132.221C147.755 154.995 129.008 175.981 98.4963 176.612C79.2501 177.009 53.9839 170.038 38.6848 159.11C26.3382 150.291 10.3493 137.941 2.95719 113.76Z" fill="white"/>
<path d="M5.95719 116.76C0.696933 99.5526 4.66844 54.3716 32.9935 23.0131C68.3291 -7.42908 107.487 6.35286 123.209 12.1297C138.93 17.9065 155.571 29.766 165.457 42.0303C179.26 65.0905 179.602 81.6013 179.843 93.2823C180.15 108.166 176.115 123.26 167.382 135.221C150.755 157.995 132.008 178.981 101.496 179.612C82.2501 180.009 56.9839 173.038 41.6848 162.11C29.3382 153.291 13.3493 140.941 5.95719 116.76Z" fill="#00C5CE"/>
<path d="M57.5707 83.8V109H52.7827L40.2187 93.7V109H34.4587V83.8H39.2827L51.8107 99.1V83.8H57.5707ZM82.1089 99.388C82.1089 99.46 82.0729 99.964 82.0009 100.9H67.3489C67.6129 102.1 68.2369 103.048 69.2209 103.744C70.2049 104.44 71.4289 104.788 72.8929 104.788C73.9009 104.788 74.7889 104.644 75.5569 104.356C76.3489 104.044 77.0809 103.564 77.7529 102.916L80.7409 106.156C78.9169 108.244 76.2529 109.288 72.7489 109.288C70.5649 109.288 68.6329 108.868 66.9529 108.028C65.2729 107.164 63.9769 105.976 63.0649 104.464C62.1529 102.952 61.6969 101.236 61.6969 99.316C61.6969 97.42 62.1409 95.716 63.0289 94.204C63.9409 92.668 65.1769 91.48 66.7369 90.64C68.3209 89.776 70.0849 89.344 72.0289 89.344C73.9249 89.344 75.6409 89.752 77.1769 90.568C78.7129 91.384 79.9129 92.56 80.7769 94.096C81.6649 95.608 82.1089 97.372 82.1089 99.388ZM72.0649 93.592C70.7929 93.592 69.7249 93.952 68.8609 94.672C67.9969 95.392 67.4689 96.376 67.2769 97.624H76.8169C76.6249 96.4 76.0969 95.428 75.2329 94.708C74.3689 93.964 73.3129 93.592 72.0649 93.592ZM97.6325 109L93.3845 103.06L88.9925 109H82.8725L90.3245 99.244L83.1245 89.632H89.4245L93.5285 95.284L97.7405 89.632H103.717L96.5165 99.1L104.005 109H97.6325ZM119.223 108.064C118.671 108.472 117.987 108.784 117.171 109C116.379 109.192 115.539 109.288 114.651 109.288C112.347 109.288 110.559 108.7 109.287 107.524C108.039 106.348 107.415 104.62 107.415 102.34V94.384H104.427V90.064H107.415V85.348H113.031V90.064H117.855V94.384H113.031V102.268C113.031 103.084 113.235 103.72 113.643 104.176C114.075 104.608 114.675 104.824 115.443 104.824C116.331 104.824 117.087 104.584 117.711 104.104L119.223 108.064ZM149.347 94.06V98.74L132.211 105.256V100.756L144.199 96.4L132.211 92.008V87.544L149.347 94.06Z" fill="white"/>
</g>
<defs>
<filter id="filter0_d_7:168" x="0.973999" y="0.967926" width="189.026" height="189.032" filterUnits="userSpaceOnUse" color-interpolation-filters="sRGB">
<feFlood flood-opacity="0" result="BackgroundImageFix"/>
<feColorMatrix in="SourceAlpha" type="matrix" values="0 0 0 0 0 0 0 0 0 0 0 0 0 0 0 0 0 0 127 0" result="hardAlpha"/>
<feOffset dx="4" dy="4"/>
<feGaussianBlur stdDeviation="2"/>
<feComposite in2="hardAlpha" operator="out"/>
<feColorMatrix type="matrix" values="0 0 0 0 0 0 0 0 0 0 0 0 0 0 0 0 0 0 0.25 0"/>
<feBlend mode="normal" in2="BackgroundImageFix" result="effect1_dropShadow_7:168"/>
<feBlend mode="normal" in="SourceGraphic" in2="effect1_dropShadow_7:168" result="shape"/>
</filter>
</defs>
</svg>
