<svg width="99" height="99" viewBox="0 0 99 99" fill="none" xmlns="http://www.w3.org/2000/svg">
  <path
    d="M0.934464 62.5425C-1.82397 52.8039 0.9345 27.4404 17.2288 10.1335C37.4551 -6.57655 59.3173 1.62931 68.0919 5.06083C76.8666 8.49236 86.0874 15.3554 91.505 22.3677C99 35.497 99 44.7866 99 51.3588C99 59.733 96.5554 68.1747 91.505 74.8003C81.8891 87.4149 71.1022 99 53.9352 99C43.1065 99 28.9779 94.7857 20.5007 88.462C13.6594 83.3587 4.81083 76.2278 0.934464 62.5425Z"
    fill="#FEB81A" />
  <path
    d="M26.18 58.8213C24.852 58.8213 23.564 58.6453 22.316 58.2933C21.084 57.9253 20.092 57.4533 19.34 56.8773L20.66 53.9493C21.38 54.4773 22.236 54.9013 23.228 55.2213C24.22 55.5413 25.212 55.7013 26.204 55.7013C27.308 55.7013 28.124 55.5413 28.652 55.2213C29.18 54.8853 29.444 54.4453 29.444 53.9013C29.444 53.5013 29.284 53.1733 28.964 52.9173C28.66 52.6453 28.26 52.4293 27.764 52.2693C27.284 52.1093 26.628 51.9333 25.796 51.7413C24.516 51.4373 23.468 51.1333 22.652 50.8293C21.836 50.5253 21.132 50.0373 20.54 49.3653C19.964 48.6933 19.676 47.7973 19.676 46.6773C19.676 45.7013 19.94 44.8213 20.468 44.0373C20.996 43.2373 21.788 42.6053 22.844 42.1413C23.916 41.6773 25.22 41.4453 26.756 41.4453C27.828 41.4453 28.876 41.5733 29.9 41.8293C30.924 42.0853 31.82 42.4533 32.588 42.9333L31.388 45.8853C29.836 45.0053 28.284 44.5653 26.732 44.5653C25.644 44.5653 24.836 44.7413 24.308 45.0933C23.796 45.4453 23.54 45.9093 23.54 46.4853C23.54 47.0613 23.836 47.4933 24.428 47.7813C25.036 48.0533 25.956 48.3253 27.188 48.5973C28.468 48.9013 29.516 49.2053 30.332 49.5093C31.148 49.8133 31.844 50.2933 32.42 50.9493C33.012 51.6053 33.308 52.4933 33.308 53.6133C33.308 54.5733 33.036 55.4533 32.492 56.2533C31.964 57.0373 31.164 57.6613 30.092 58.1253C29.02 58.5893 27.716 58.8213 26.18 58.8213ZM44.0287 57.9093C43.6607 58.1813 43.2047 58.3893 42.6607 58.5333C42.1327 58.6613 41.5727 58.7253 40.9807 58.7253C39.4447 58.7253 38.2527 58.3333 37.4047 57.5493C36.5727 56.7653 36.1567 55.6133 36.1567 54.0933V48.7893H34.1647V45.9093H36.1567V42.7653H39.9007V45.9093H43.1167V48.7893H39.9007V54.0453C39.9007 54.5893 40.0367 55.0133 40.3087 55.3173C40.5967 55.6053 40.9967 55.7493 41.5087 55.7493C42.1007 55.7493 42.6047 55.5893 43.0207 55.2693L44.0287 57.9093ZM51.3384 45.4293C53.3384 45.4293 54.8744 45.9093 55.9464 46.8693C57.0184 47.8133 57.5544 49.2453 57.5544 51.1653V58.5333H54.0504V56.9253C53.3464 58.1253 52.0344 58.7253 50.1144 58.7253C49.1224 58.7253 48.2584 58.5573 47.5224 58.2213C46.8024 57.8853 46.2504 57.4213 45.8664 56.8293C45.4824 56.2373 45.2904 55.5653 45.2904 54.8133C45.2904 53.6133 45.7384 52.6693 46.6344 51.9813C47.5464 51.2933 48.9464 50.9493 50.8344 50.9493H53.8104C53.8104 50.1333 53.5624 49.5093 53.0664 49.0773C52.5704 48.6293 51.8264 48.4053 50.8344 48.4053C50.1464 48.4053 49.4664 48.5173 48.7944 48.7413C48.1384 48.9493 47.5784 49.2373 47.1144 49.6053L45.7704 46.9893C46.4744 46.4933 47.3144 46.1093 48.2904 45.8373C49.2824 45.5653 50.2984 45.4293 51.3384 45.4293ZM51.0504 56.2053C51.6904 56.2053 52.2584 56.0613 52.7544 55.7733C53.2504 55.4693 53.6024 55.0293 53.8104 54.4533V53.1333H51.2424C49.7064 53.1333 48.9384 53.6373 48.9384 54.6453C48.9384 55.1253 49.1224 55.5093 49.4904 55.7973C49.8744 56.0693 50.3944 56.2053 51.0504 56.2053ZM64.5189 47.3253C64.9669 46.7013 65.5669 46.2293 66.3189 45.9093C67.0869 45.5893 67.9669 45.4293 68.9589 45.4293V48.8853C68.5429 48.8533 68.2629 48.8373 68.1189 48.8373C67.0469 48.8373 66.2069 49.1413 65.5989 49.7493C64.9909 50.3413 64.6869 51.2373 64.6869 52.4373V58.5333H60.9429V45.6213H64.5189V47.3253ZM79.9584 57.9093C79.5904 58.1813 79.1344 58.3893 78.5904 58.5333C78.0624 58.6613 77.5024 58.7253 76.9104 58.7253C75.3744 58.7253 74.1824 58.3333 73.3344 57.5493C72.5024 56.7653 72.0864 55.6133 72.0864 54.0933V48.7893H70.0944V45.9093H72.0864V42.7653H75.8304V45.9093H79.0464V48.7893H75.8304V54.0453C75.8304 54.5893 75.9664 55.0133 76.2384 55.3173C76.5264 55.6053 76.9264 55.7493 77.4384 55.7493C78.0304 55.7493 78.5344 55.5893 78.9504 55.2693L79.9584 57.9093Z"
    fill="white" />
</svg>