<svg width="99" height="99" viewBox="0 0 99 99" fill="none" xmlns="http://www.w3.org/2000/svg">
<path d="M0.934464 62.5425C-1.82397 52.8039 0.9345 27.4404 17.2288 10.1335C37.4551 -6.57655 59.3173 1.62931 68.0919 5.06083C76.8666 8.49236 86.0874 15.3554 91.505 22.3677C99 35.497 99 44.7866 99 51.3588C99 59.733 96.5554 68.1747 91.505 74.8003C81.8891 87.4149 71.1022 99 53.9352 99C43.1065 99 28.9779 94.7857 20.5007 88.462C13.6594 83.3587 4.81083 76.2278 0.934464 62.5425Z" fill="#FEB81A"/>
<path d="M28.1956 58.8213C26.8676 58.8213 25.5796 58.6453 24.3316 58.2933C23.0996 57.9253 22.1076 57.4533 21.3556 56.8773L22.6756 53.9493C23.3956 54.4773 24.2516 54.9013 25.2436 55.2213C26.2356 55.5413 27.2276 55.7013 28.2196 55.7013C29.3236 55.7013 30.1396 55.5413 30.6676 55.2213C31.1956 54.8853 31.4596 54.4453 31.4596 53.9013C31.4596 53.5013 31.2996 53.1733 30.9796 52.9173C30.6756 52.6453 30.2756 52.4293 29.7796 52.2693C29.2996 52.1093 28.6436 51.9333 27.8116 51.7413C26.5316 51.4373 25.4836 51.1333 24.6676 50.8293C23.8516 50.5253 23.1476 50.0373 22.5556 49.3653C21.9796 48.6933 21.6916 47.7973 21.6916 46.6773C21.6916 45.7013 21.9556 44.8213 22.4836 44.0373C23.0116 43.2373 23.8036 42.6053 24.8596 42.1413C25.9316 41.6773 27.2356 41.4453 28.7716 41.4453C29.8436 41.4453 30.8916 41.5733 31.9156 41.8293C32.9396 42.0853 33.8356 42.4533 34.6036 42.9333L33.4036 45.8853C31.8516 45.0053 30.2996 44.5653 28.7476 44.5653C27.6596 44.5653 26.8516 44.7413 26.3236 45.0933C25.8116 45.4453 25.5556 45.9093 25.5556 46.4853C25.5556 47.0613 25.8516 47.4933 26.4436 47.7813C27.0516 48.0533 27.9716 48.3253 29.2036 48.5973C30.4836 48.9013 31.5316 49.2053 32.3476 49.5093C33.1636 49.8133 33.8596 50.2933 34.4356 50.9493C35.0276 51.6053 35.3236 52.4933 35.3236 53.6133C35.3236 54.5733 35.0516 55.4533 34.5076 56.2533C33.9796 57.0373 33.1796 57.6613 32.1076 58.1253C31.0356 58.5893 29.7316 58.8213 28.1956 58.8213ZM46.0443 57.9093C45.6763 58.1813 45.2203 58.3893 44.6763 58.5333C44.1483 58.6613 43.5883 58.7253 42.9963 58.7253C41.4603 58.7253 40.2683 58.3333 39.4203 57.5493C38.5883 56.7653 38.1723 55.6133 38.1723 54.0933V48.7893H36.1803V45.9093H38.1723V42.7653H41.9163V45.9093H45.1323V48.7893H41.9163V54.0453C41.9163 54.5893 42.0523 55.0133 42.3243 55.3173C42.6123 55.6053 43.0123 55.7493 43.5243 55.7493C44.1163 55.7493 44.6203 55.5893 45.0363 55.2693L46.0443 57.9093ZM53.8915 58.7253C52.5315 58.7253 51.3075 58.4453 50.2195 57.8853C49.1475 57.3093 48.3075 56.5173 47.6995 55.5093C47.0915 54.5013 46.7875 53.3573 46.7875 52.0773C46.7875 50.7973 47.0915 49.6533 47.6995 48.6453C48.3075 47.6373 49.1475 46.8533 50.2195 46.2933C51.3075 45.7173 52.5315 45.4293 53.8915 45.4293C55.2515 45.4293 56.4675 45.7173 57.5395 46.2933C58.6115 46.8533 59.4515 47.6373 60.0595 48.6453C60.6675 49.6533 60.9715 50.7973 60.9715 52.0773C60.9715 53.3573 60.6675 54.5013 60.0595 55.5093C59.4515 56.5173 58.6115 57.3093 57.5395 57.8853C56.4675 58.4453 55.2515 58.7253 53.8915 58.7253ZM53.8915 55.6533C54.8515 55.6533 55.6355 55.3333 56.2435 54.6933C56.8675 54.0373 57.1795 53.1653 57.1795 52.0773C57.1795 50.9893 56.8675 50.1253 56.2435 49.4853C55.6355 48.8293 54.8515 48.5013 53.8915 48.5013C52.9315 48.5013 52.1395 48.8293 51.5155 49.4853C50.8915 50.1253 50.5795 50.9893 50.5795 52.0773C50.5795 53.1653 50.8915 54.0373 51.5155 54.6933C52.1395 55.3333 52.9315 55.6533 53.8915 55.6533ZM71.1061 45.4293C72.3061 45.4293 73.3941 45.7093 74.3701 46.2693C75.3621 46.8133 76.1381 47.5893 76.6981 48.5973C77.2581 49.5893 77.5381 50.7493 77.5381 52.0773C77.5381 53.4053 77.2581 54.5733 76.6981 55.5813C76.1381 56.5733 75.3621 57.3493 74.3701 57.9093C73.3941 58.4533 72.3061 58.7253 71.1061 58.7253C69.4581 58.7253 68.1621 58.2053 67.2181 57.1653V63.1893H63.4741V45.6213H67.0501V47.1093C67.9781 45.9893 69.3301 45.4293 71.1061 45.4293ZM70.4581 55.6533C71.4181 55.6533 72.2021 55.3333 72.8101 54.6933C73.4341 54.0373 73.7461 53.1653 73.7461 52.0773C73.7461 50.9893 73.4341 50.1253 72.8101 49.4853C72.2021 48.8293 71.4181 48.5013 70.4581 48.5013C69.4981 48.5013 68.7061 48.8293 68.0821 49.4853C67.4741 50.1253 67.1701 50.9893 67.1701 52.0773C67.1701 53.1653 67.4741 54.0373 68.0821 54.6933C68.7061 55.3333 69.4981 55.6533 70.4581 55.6533Z" fill="white"/>
</svg>
