<svg width="184" height="183" viewBox="0 0 184 183" fill="none" xmlns="http://www.w3.org/2000/svg">
<path d="M2.0544 116.49C-3.33508 98.8598 0.73399 52.5689 29.7549 20.44C65.9586 -10.75 106.079 3.37049 122.186 9.28924C138.294 15.208 155.343 27.3588 165.473 39.9244C179.615 63.5511 179.965 80.4675 180.212 92.4355C180.527 107.685 176.393 123.149 167.445 135.405C150.409 158.738 131.202 180.24 99.9406 180.886C80.2215 181.293 54.3346 174.15 38.6597 162.954C26.0098 153.918 9.62811 141.265 2.0544 116.49Z" fill="white"/>
<path d="M7.95719 117.76C2.69693 100.553 6.66844 55.3716 34.9935 24.0131C70.3291 -6.42908 109.487 7.35286 125.209 13.1297C140.93 18.9065 157.571 30.766 167.457 43.0303C181.26 66.0905 181.602 82.6013 181.843 94.2823C182.15 109.166 178.115 124.26 169.382 136.221C152.755 158.995 134.008 179.981 103.496 180.612C84.2501 181.009 58.9839 174.038 43.6848 163.11C31.3382 154.291 15.3493 141.941 7.95719 117.76Z" fill="#00C5CE"/>
<path d="M67.8382 44.386C70.0089 44.386 71.6075 44.8187 72.6342 45.684C73.6755 46.5493 74.1962 47.708 74.1962 49.16C74.1962 50.0987 73.9615 50.9567 73.4922 51.734C73.0229 52.4967 72.3042 53.1127 71.3362 53.582C70.3829 54.0367 69.2022 54.264 67.7942 54.264C66.7089 54.264 65.6382 54.1247 64.5822 53.846C63.5409 53.5527 62.6535 53.142 61.9202 52.614L63.3282 49.886C63.9149 50.326 64.5895 50.6707 65.3522 50.92C66.1149 51.1547 66.8995 51.272 67.7062 51.272C68.6009 51.272 69.3049 51.096 69.8182 50.744C70.3315 50.392 70.5882 49.9007 70.5882 49.27C70.5882 48.61 70.3169 48.1113 69.7742 47.774C69.2462 47.4367 68.3222 47.268 67.0022 47.268H63.0642L63.8562 38.6H73.2502V41.46H66.8262L66.5842 44.386H67.8382ZM90.2326 53.428C89.8953 53.6773 89.4773 53.868 88.9786 54C88.4946 54.1173 87.9813 54.176 87.4386 54.176C86.0306 54.176 84.938 53.8167 84.1606 53.098C83.398 52.3793 83.0166 51.3233 83.0166 49.93V45.068H81.1906V42.428H83.0166V39.546H86.4486V42.428H89.3966V45.068H86.4486V49.886C86.4486 50.3847 86.5733 50.7733 86.8226 51.052C87.0866 51.316 87.4533 51.448 87.9226 51.448C88.4653 51.448 88.9273 51.3013 89.3086 51.008L90.2326 53.428ZM92.1592 42.164H95.5912V54H92.1592V42.164ZM93.8752 40.514C93.2445 40.514 92.7312 40.3307 92.3352 39.964C91.9392 39.5973 91.7412 39.1427 91.7412 38.6C91.7412 38.0573 91.9392 37.6027 92.3352 37.236C92.7312 36.8693 93.2445 36.686 93.8752 36.686C94.5059 36.686 95.0192 36.862 95.4152 37.214C95.8112 37.566 96.0092 38.006 96.0092 38.534C96.0092 39.106 95.8112 39.5827 95.4152 39.964C95.0192 40.3307 94.5059 40.514 93.8752 40.514ZM105.772 41.988C106.872 41.988 107.87 42.2447 108.764 42.758C109.674 43.2567 110.385 43.968 110.898 44.892C111.412 45.8013 111.668 46.8647 111.668 48.082C111.668 49.2993 111.412 50.37 110.898 51.294C110.385 52.2033 109.674 52.9147 108.764 53.428C107.87 53.9267 106.872 54.176 105.772 54.176C104.262 54.176 103.074 53.6993 102.208 52.746V58.268H98.7764V42.164H102.054V43.528C102.905 42.5013 104.144 41.988 105.772 41.988ZM105.178 51.36C106.058 51.36 106.777 51.0667 107.334 50.48C107.906 49.8787 108.192 49.0793 108.192 48.082C108.192 47.0847 107.906 46.2927 107.334 45.706C106.777 45.1047 106.058 44.804 105.178 44.804C104.298 44.804 103.572 45.1047 103 45.706C102.443 46.2927 102.164 47.0847 102.164 48.082C102.164 49.0793 102.443 49.8787 103 50.48C103.572 51.0667 104.298 51.36 105.178 51.36ZM117.948 54.176C116.965 54.176 116.005 54.0587 115.066 53.824C114.127 53.5747 113.379 53.2667 112.822 52.9L113.966 50.436C114.494 50.7733 115.132 51.052 115.88 51.272C116.628 51.4773 117.361 51.58 118.08 51.58C119.532 51.58 120.258 51.2207 120.258 50.502C120.258 50.1647 120.06 49.9227 119.664 49.776C119.268 49.6293 118.659 49.5047 117.838 49.402C116.87 49.2553 116.071 49.0867 115.44 48.896C114.809 48.7053 114.259 48.368 113.79 47.884C113.335 47.4 113.108 46.7107 113.108 45.816C113.108 45.068 113.321 44.408 113.746 43.836C114.186 43.2493 114.817 42.7947 115.638 42.472C116.474 42.1493 117.457 41.988 118.586 41.988C119.422 41.988 120.251 42.0833 121.072 42.274C121.908 42.45 122.597 42.6993 123.14 43.022L121.996 45.464C120.955 44.8773 119.818 44.584 118.586 44.584C117.853 44.584 117.303 44.6867 116.936 44.892C116.569 45.0973 116.386 45.3613 116.386 45.684C116.386 46.0507 116.584 46.3073 116.98 46.454C117.376 46.6007 118.007 46.74 118.872 46.872C119.84 47.0333 120.632 47.2093 121.248 47.4C121.864 47.576 122.399 47.906 122.854 48.39C123.309 48.874 123.536 49.5487 123.536 50.414C123.536 51.1473 123.316 51.8 122.876 52.372C122.436 52.944 121.791 53.3913 120.94 53.714C120.104 54.022 119.107 54.176 117.948 54.176ZM82.1067 72.428H85.1427V75.068H82.1947V84H78.7627V75.068H76.9367V72.428H78.7627V71.9C78.7627 70.5507 79.1587 69.48 79.9507 68.688C80.7574 67.896 81.8867 67.5 83.3387 67.5C83.8521 67.5 84.3361 67.5587 84.7907 67.676C85.2601 67.7787 85.6487 67.9327 85.9567 68.138L85.0547 70.624C84.6587 70.3453 84.1967 70.206 83.6687 70.206C82.6274 70.206 82.1067 70.778 82.1067 71.922V72.428ZM92.3342 84.176C91.0875 84.176 89.9655 83.9193 88.9682 83.406C87.9855 82.878 87.2155 82.152 86.6582 81.228C86.1008 80.304 85.8222 79.2553 85.8222 78.082C85.8222 76.9087 86.1008 75.86 86.6582 74.936C87.2155 74.012 87.9855 73.2933 88.9682 72.78C89.9655 72.252 91.0875 71.988 92.3342 71.988C93.5808 71.988 94.6955 72.252 95.6782 72.78C96.6608 73.2933 97.4308 74.012 97.9882 74.936C98.5455 75.86 98.8242 76.9087 98.8242 78.082C98.8242 79.2553 98.5455 80.304 97.9882 81.228C97.4308 82.152 96.6608 82.878 95.6782 83.406C94.6955 83.9193 93.5808 84.176 92.3342 84.176ZM92.3342 81.36C93.2142 81.36 93.9328 81.0667 94.4902 80.48C95.0622 79.8787 95.3482 79.0793 95.3482 78.082C95.3482 77.0847 95.0622 76.2927 94.4902 75.706C93.9328 75.1047 93.2142 74.804 92.3342 74.804C91.4542 74.804 90.7282 75.1047 90.1562 75.706C89.5842 76.2927 89.2982 77.0847 89.2982 78.082C89.2982 79.0793 89.5842 79.8787 90.1562 80.48C90.7282 81.0667 91.4542 81.36 92.3342 81.36ZM104.396 73.726C104.807 73.154 105.357 72.7213 106.046 72.428C106.75 72.1347 107.557 71.988 108.466 71.988V75.156C108.085 75.1267 107.828 75.112 107.696 75.112C106.714 75.112 105.944 75.3907 105.386 75.948C104.829 76.4907 104.55 77.312 104.55 78.412V84H101.118V72.164H104.396V73.726ZM61.0721 101.988C62.5534 101.988 63.7267 102.428 64.5921 103.308C65.4721 104.173 65.9121 105.479 65.9121 107.224V114H62.4801V107.752C62.4801 106.813 62.2821 106.117 61.8861 105.662C61.5047 105.193 60.9547 104.958 60.2361 104.958C59.4294 104.958 58.7914 105.222 58.3221 105.75C57.8527 106.263 57.6181 107.033 57.6181 108.06V114H54.1861V107.752C54.1861 105.889 53.4381 104.958 51.9421 104.958C51.1501 104.958 50.5194 105.222 50.0501 105.75C49.5807 106.263 49.3461 107.033 49.3461 108.06V114H45.9141V102.164H49.1921V103.528C49.6321 103.029 50.1674 102.648 50.7981 102.384C51.4434 102.12 52.1474 101.988 52.9101 101.988C53.7461 101.988 54.5014 102.157 55.1761 102.494C55.8507 102.817 56.3934 103.293 56.8041 103.924C57.2881 103.308 57.8967 102.831 58.6301 102.494C59.3781 102.157 60.1921 101.988 61.0721 101.988ZM68.9883 102.164H72.4203V114H68.9883V102.164ZM70.7043 100.514C70.0736 100.514 69.5603 100.331 69.1643 99.964C68.7683 99.5973 68.5703 99.1427 68.5703 98.6C68.5703 98.0573 68.7683 97.6027 69.1643 97.236C69.5603 96.8693 70.0736 96.686 70.7043 96.686C71.335 96.686 71.8483 96.862 72.2443 97.214C72.6403 97.566 72.8383 98.006 72.8383 98.534C72.8383 99.106 72.6403 99.5827 72.2443 99.964C71.8483 100.331 71.335 100.514 70.7043 100.514ZM82.7995 101.988C84.2662 101.988 85.4468 102.428 86.3415 103.308C87.2508 104.188 87.7055 105.493 87.7055 107.224V114H84.2735V107.752C84.2735 106.813 84.0682 106.117 83.6575 105.662C83.2468 105.193 82.6528 104.958 81.8755 104.958C81.0102 104.958 80.3208 105.229 79.8075 105.772C79.2942 106.3 79.0375 107.092 79.0375 108.148V114H75.6055V102.164H78.8835V103.55C79.3382 103.051 79.9028 102.67 80.5775 102.406C81.2522 102.127 81.9928 101.988 82.7995 101.988ZM103.001 97.676V114H99.7233V112.636C98.8727 113.663 97.6407 114.176 96.0273 114.176C94.9127 114.176 93.9007 113.927 92.9913 113.428C92.0967 112.929 91.3927 112.218 90.8793 111.294C90.366 110.37 90.1093 109.299 90.1093 108.082C90.1093 106.865 90.366 105.794 90.8793 104.87C91.3927 103.946 92.0967 103.235 92.9913 102.736C93.9007 102.237 94.9127 101.988 96.0273 101.988C97.538 101.988 98.7187 102.465 99.5693 103.418V97.676H103.001ZM96.6213 111.36C97.4867 111.36 98.2053 111.067 98.7773 110.48C99.3493 109.879 99.6353 109.079 99.6353 108.082C99.6353 107.085 99.3493 106.293 98.7773 105.706C98.2053 105.105 97.4867 104.804 96.6213 104.804C95.7413 104.804 95.0153 105.105 94.4433 105.706C93.8713 106.293 93.5853 107.085 93.5853 108.082C93.5853 109.079 93.8713 109.879 94.4433 110.48C95.0153 111.067 95.7413 111.36 96.6213 111.36ZM109.94 102.428H112.976V105.068H110.028V114H106.596V105.068H104.77V102.428H106.596V101.9C106.596 100.551 106.992 99.48 107.784 98.688C108.59 97.896 109.72 97.5 111.172 97.5C111.685 97.5 112.169 97.5587 112.624 97.676C113.093 97.7787 113.482 97.9327 113.79 98.138L112.888 100.624C112.492 100.345 112.03 100.206 111.502 100.206C110.46 100.206 109.94 100.778 109.94 101.922V102.428ZM126.61 102.164V114H123.354V112.592C122.899 113.105 122.356 113.501 121.726 113.78C121.095 114.044 120.413 114.176 119.68 114.176C118.125 114.176 116.893 113.729 115.984 112.834C115.074 111.939 114.62 110.612 114.62 108.852V102.164H118.052V108.346C118.052 110.253 118.851 111.206 120.45 111.206C121.271 111.206 121.931 110.942 122.43 110.414C122.928 109.871 123.178 109.072 123.178 108.016V102.164H126.61ZM129.789 97.676H133.221V114H129.789V97.676ZM136.406 97.676H139.838V114H136.406V97.676ZM72.1497 138.126C72.1497 138.17 72.1277 138.478 72.0837 139.05H63.1297C63.291 139.783 63.6723 140.363 64.2737 140.788C64.875 141.213 65.623 141.426 66.5177 141.426C67.1337 141.426 67.6763 141.338 68.1457 141.162C68.6297 140.971 69.077 140.678 69.4877 140.282L71.3137 142.262C70.199 143.538 68.571 144.176 66.4297 144.176C65.095 144.176 63.9143 143.919 62.8877 143.406C61.861 142.878 61.069 142.152 60.5117 141.228C59.9543 140.304 59.6757 139.255 59.6757 138.082C59.6757 136.923 59.947 135.882 60.4897 134.958C61.047 134.019 61.8023 133.293 62.7557 132.78C63.7237 132.252 64.8017 131.988 65.9897 131.988C67.1483 131.988 68.197 132.237 69.1357 132.736C70.0743 133.235 70.8077 133.953 71.3357 134.892C71.8783 135.816 72.1497 136.894 72.1497 138.126ZM66.0117 134.584C65.2343 134.584 64.5817 134.804 64.0537 135.244C63.5257 135.684 63.203 136.285 63.0857 137.048H68.9157C68.7983 136.3 68.4757 135.706 67.9477 135.266C67.4197 134.811 66.7743 134.584 66.0117 134.584ZM78.8863 131.988C80.7197 131.988 82.1277 132.428 83.1103 133.308C84.093 134.173 84.5843 135.486 84.5843 137.246V144H81.3723V142.526C80.727 143.626 79.5243 144.176 77.7643 144.176C76.855 144.176 76.063 144.022 75.3883 143.714C74.7283 143.406 74.2223 142.981 73.8703 142.438C73.5183 141.895 73.3423 141.279 73.3423 140.59C73.3423 139.49 73.753 138.625 74.5743 137.994C75.4103 137.363 76.6937 137.048 78.4243 137.048H81.1523C81.1523 136.3 80.925 135.728 80.4703 135.332C80.0157 134.921 79.3337 134.716 78.4243 134.716C77.7937 134.716 77.1703 134.819 76.5543 135.024C75.953 135.215 75.4397 135.479 75.0143 135.816L73.7823 133.418C74.4277 132.963 75.1977 132.611 76.0923 132.362C77.0017 132.113 77.933 131.988 78.8863 131.988ZM78.6223 141.866C79.209 141.866 79.7297 141.734 80.1843 141.47C80.639 141.191 80.9617 140.788 81.1523 140.26V139.05H78.7983C77.3903 139.05 76.6863 139.512 76.6863 140.436C76.6863 140.876 76.855 141.228 77.1923 141.492C77.5443 141.741 78.021 141.866 78.6223 141.866ZM95.3244 143.428C94.9871 143.677 94.5691 143.868 94.0704 144C93.5864 144.117 93.0731 144.176 92.5304 144.176C91.1224 144.176 90.0298 143.817 89.2524 143.098C88.4898 142.379 88.1084 141.323 88.1084 139.93V135.068H86.2824V132.428H88.1084V129.546H91.5404V132.428H94.4884V135.068H91.5404V139.886C91.5404 140.385 91.6651 140.773 91.9144 141.052C92.1784 141.316 92.5451 141.448 93.0144 141.448C93.5571 141.448 94.0191 141.301 94.4004 141.008L95.3244 143.428ZM97.251 132.164H100.683V144H97.251V132.164ZM98.967 130.514C98.3363 130.514 97.823 130.331 97.427 129.964C97.031 129.597 96.833 129.143 96.833 128.6C96.833 128.057 97.031 127.603 97.427 127.236C97.823 126.869 98.3363 126.686 98.967 126.686C99.5977 126.686 100.111 126.862 100.507 127.214C100.903 127.566 101.101 128.006 101.101 128.534C101.101 129.106 100.903 129.583 100.507 129.964C100.111 130.331 99.5977 130.514 98.967 130.514ZM111.062 131.988C112.529 131.988 113.71 132.428 114.604 133.308C115.514 134.188 115.968 135.493 115.968 137.224V144H112.536V137.752C112.536 136.813 112.331 136.117 111.92 135.662C111.51 135.193 110.916 134.958 110.138 134.958C109.273 134.958 108.584 135.229 108.07 135.772C107.557 136.3 107.3 137.092 107.3 138.148V144H103.868V132.164H107.146V133.55C107.601 133.051 108.166 132.67 108.84 132.406C109.515 132.127 110.256 131.988 111.062 131.988ZM131.418 132.164V142.02C131.418 144.191 130.853 145.804 129.724 146.86C128.595 147.916 126.945 148.444 124.774 148.444C123.63 148.444 122.545 148.305 121.518 148.026C120.491 147.747 119.641 147.344 118.966 146.816L120.33 144.352C120.829 144.763 121.459 145.085 122.222 145.32C122.985 145.569 123.747 145.694 124.51 145.694C125.698 145.694 126.571 145.423 127.128 144.88C127.7 144.352 127.986 143.545 127.986 142.46V141.954C127.091 142.937 125.845 143.428 124.246 143.428C123.161 143.428 122.163 143.193 121.254 142.724C120.359 142.24 119.648 141.565 119.12 140.7C118.592 139.835 118.328 138.837 118.328 137.708C118.328 136.579 118.592 135.581 119.12 134.716C119.648 133.851 120.359 133.183 121.254 132.714C122.163 132.23 123.161 131.988 124.246 131.988C125.962 131.988 127.267 132.553 128.162 133.682V132.164H131.418ZM124.928 140.612C125.837 140.612 126.578 140.348 127.15 139.82C127.737 139.277 128.03 138.573 128.03 137.708C128.03 136.843 127.737 136.146 127.15 135.618C126.578 135.075 125.837 134.804 124.928 134.804C124.019 134.804 123.271 135.075 122.684 135.618C122.097 136.146 121.804 136.843 121.804 137.708C121.804 138.573 122.097 139.277 122.684 139.82C123.271 140.348 124.019 140.612 124.928 140.612Z" fill="white"/>
</svg>
