<svg xmlns="http://www.w3.org/2000/svg" width="154.189" height="157.448" viewBox="0 0 154.189 157.448">
  <g id="Frame_5" data-name="Frame 5" transform="translate(-28.181 -13.051)">
    <path id="Path_3" data-name="Path 3" d="M33.178,74.9c5.586-12.622,30.567-36.836,62.736-40.809,35.776.077,51.573,27.726,57.793,38.968s9.92,26.473,9.5,38.55c-3.567,20.3-11.657,30.053-17.38,36.95-7.292,8.787-17.208,15.517-28.277,18.072-21.076,4.865-42.484,7.629-60.5-7.32-11.364-9.429-22.52-26.155-25.91-40.173C28.405,107.822,25.329,92.633,33.178,74.9Z" fill="#c1522e"/>
    <path id="Path_4" data-name="Path 4" d="M60.987,109.7h-7.15L52.473,113H48.821l6.864-15.4H59.2L66.091,113h-3.74Zm-1.122-2.706-2.442-5.9-2.442,5.9Zm14.776-6.006a4.833,4.833,0,0,1,3.542,1.32,5.209,5.209,0,0,1,1.364,3.916V113H76.114v-6.248a3.041,3.041,0,0,0-.616-2.09,2.242,2.242,0,0,0-1.782-.7,2.71,2.71,0,0,0-2.068.814,3.284,3.284,0,0,0-.77,2.376V113H67.446V101.164h3.278v1.386a4.44,4.44,0,0,1,1.694-1.144A5.759,5.759,0,0,1,74.64,100.988ZM90.181,113l-2.6-3.63L84.9,113h-3.74l4.554-5.962-4.4-5.874h3.85l2.508,3.454,2.574-3.454H93.9l-4.4,5.786L94.075,113Zm5.56-11.836h3.432V113H95.741Zm1.716-1.65a2.177,2.177,0,0,1-1.54-.55,1.863,1.863,0,0,1,0-2.728,2.177,2.177,0,0,1,1.54-.55,2.231,2.231,0,0,1,1.54.528,1.693,1.693,0,0,1,.594,1.32A1.9,1.9,0,0,1,99,98.964,2.177,2.177,0,0,1,97.457,99.514Zm10.533,13.662a7.255,7.255,0,0,1-3.366-.77,5.911,5.911,0,0,1-2.31-2.178,6.337,6.337,0,0,1,0-6.292,5.753,5.753,0,0,1,2.31-2.156,7.086,7.086,0,0,1,3.366-.792,6.95,6.95,0,0,1,3.344.792,5.741,5.741,0,0,1,2.31,2.156,6.337,6.337,0,0,1,0,6.292,5.9,5.9,0,0,1-2.31,2.178A7.115,7.115,0,0,1,107.99,113.176Zm0-2.816a2.839,2.839,0,0,0,2.156-.88,3.335,3.335,0,0,0,.858-2.4,3.259,3.259,0,0,0-.858-2.376,2.807,2.807,0,0,0-2.156-.9,2.878,2.878,0,0,0-2.178.9,3.259,3.259,0,0,0-.858,2.376,3.335,3.335,0,0,0,.858,2.4A2.911,2.911,0,0,0,107.99,110.36Zm20.708-9.2V113h-3.256v-1.408a4.67,4.67,0,0,1-1.628,1.188,5.24,5.24,0,0,1-2.046.4,5.042,5.042,0,0,1-3.7-1.342,5.351,5.351,0,0,1-1.364-3.982v-6.688h3.432v6.182q0,2.86,2.4,2.86a2.594,2.594,0,0,0,1.98-.792,3.429,3.429,0,0,0,.748-2.4v-5.852Zm7.162,12.012a11.821,11.821,0,0,1-2.882-.352,7.691,7.691,0,0,1-2.244-.924l1.144-2.464a7.46,7.46,0,0,0,1.914.836,8.3,8.3,0,0,0,2.2.308q2.178,0,2.178-1.078a.763.763,0,0,0-.594-.726,8.8,8.8,0,0,0-1.826-.374,17.628,17.628,0,0,1-2.4-.506,3.8,3.8,0,0,1-1.65-1.012,2.9,2.9,0,0,1-.682-2.068,3.232,3.232,0,0,1,.638-1.98,4.222,4.222,0,0,1,1.892-1.364,8.164,8.164,0,0,1,2.948-.484,10.938,10.938,0,0,1,2.486.286,6.781,6.781,0,0,1,2.068.748l-1.144,2.442a6.825,6.825,0,0,0-3.41-.88,3.475,3.475,0,0,0-1.65.308.9.9,0,0,0-.55.792.786.786,0,0,0,.594.77,10.494,10.494,0,0,0,1.892.418,18.509,18.509,0,0,1,2.376.528,3.487,3.487,0,0,1,1.606.99,2.84,2.84,0,0,1,.682,2.024,3.126,3.126,0,0,1-.66,1.958,4.282,4.282,0,0,1-1.936,1.342A8.666,8.666,0,0,1,135.86,113.176Z" fill="#fff"/>
    <path id="Path_5" data-name="Path 5" d="M149.8,108.788c3.287,9.369,2.538,25.327,12.329,30.454,8.628.123,7.947-4.316,10.437-7.086,2.64-2.939,3.044-9.818,4.087-13.479,3.167-11.113,2.671-21.845,3.108-33.32.388-10.177,3.9-21.526,2.109-31.537-.932-5.218-4.333-12.948-8.486-16.783-1.666-1.538-2.316-3.576-4.052-5.179-1.589-1.467-3.689-1.839-5.168-3.206-3.462-3.2-12.625-4.1-17.253-5.42-5.7-1.625-11.355-2.23-17.139-3.879-13.677-3.9-28.023-4.273-41.944-5.863-7.462-.852-22.062-1.216-24.513,6.26C61.589,25,58.358,30,57.733,35.655c-.36,3.257-.764,7.975.692,11.152.8,1.744,2.242,4.278,2.064,6.121-.375,3.869,8.445,24.116,13.54,18.447,4.276-4.759,5.68-20.148,15.684-12.353,3.508,2.733,1.484,4.809,3.484,8.035,1.635,2.637,2.492,5.988,3.861,8.869,3.55,7.47,20.248,3.611,17.371-1.029-1.929-3.113-8.312-3.6-7.03-8.1,1.181-4.14,4.059-7.395,9.413-5.869,6.834,1.948,15.2,7.435,18.2,13.739,1.879,3.953,5.616,8.381,8.086,12.365C147.208,93.669,147.247,101.522,149.8,108.788Z" fill="rgba(255,255,255,0.1)"/>
  </g>
</svg>
