<svg width="175" height="148" viewBox="0 0 175 148" fill="none" xmlns="http://www.w3.org/2000/svg">
<path d="M9.27427 85.2852C5.51277 72.0053 9.27432 37.4187 31.4938 13.8184C59.0751 -8.96802 88.8872 2.22179 100.853 6.90114C112.818 11.5805 125.392 20.9392 132.779 30.5014C143 48.4051 143 61.0727 143 70.0347C143 81.4541 139.667 92.9655 132.779 102C119.667 119.202 104.958 135 81.548 135C66.7816 135 47.5153 129.253 35.9555 120.63C26.6265 113.671 14.5602 103.947 9.27427 85.2852Z" fill="#FEB81A"/>
<path d="M60.3606 67.992C61.2406 68.2707 61.9299 68.74 62.4286 69.4C62.9272 70.0453 63.1766 70.8447 63.1766 71.798C63.1766 73.1473 62.6486 74.1887 61.5926 74.922C60.5512 75.6407 59.0259 76 57.0166 76H49.0526V60.6H56.5766C58.4539 60.6 59.8912 60.9593 60.8886 61.678C61.9006 62.3967 62.4066 63.372 62.4066 64.604C62.4066 65.352 62.2232 66.0193 61.8566 66.606C61.5046 67.1927 61.0059 67.6547 60.3606 67.992ZM52.5946 63.284V66.914H56.1366C57.0166 66.914 57.6839 66.76 58.1386 66.452C58.5932 66.144 58.8206 65.6893 58.8206 65.088C58.8206 64.4867 58.5932 64.0393 58.1386 63.746C57.6839 63.438 57.0166 63.284 56.1366 63.284H52.5946ZM56.7526 73.316C57.6912 73.316 58.3952 73.162 58.8646 72.854C59.3486 72.546 59.5906 72.0693 59.5906 71.424C59.5906 70.148 58.6446 69.51 56.7526 69.51H52.5946V73.316H56.7526ZM77.5568 64.164V76H74.3008V74.592C73.8462 75.1053 73.3035 75.5013 72.6728 75.78C72.0422 76.044 71.3602 76.176 70.6268 76.176C69.0722 76.176 67.8402 75.7287 66.9308 74.834C66.0215 73.9393 65.5668 72.612 65.5668 70.852V64.164H68.9988V70.346C68.9988 72.2527 69.7982 73.206 71.3968 73.206C72.2182 73.206 72.8782 72.942 73.3768 72.414C73.8755 71.8713 74.1248 71.072 74.1248 70.016V64.164H77.5568ZM84.7183 76.176C83.7357 76.176 82.775 76.0587 81.8363 75.824C80.8977 75.5747 80.1497 75.2667 79.5923 74.9L80.7363 72.436C81.2643 72.7733 81.9023 73.052 82.6503 73.272C83.3983 73.4773 84.1317 73.58 84.8503 73.58C86.3023 73.58 87.0283 73.2207 87.0283 72.502C87.0283 72.1647 86.8303 71.9227 86.4343 71.776C86.0383 71.6293 85.4297 71.5047 84.6083 71.402C83.6403 71.2553 82.841 71.0867 82.2103 70.896C81.5797 70.7053 81.0297 70.368 80.5603 69.884C80.1057 69.4 79.8783 68.7107 79.8783 67.816C79.8783 67.068 80.091 66.408 80.5163 65.836C80.9563 65.2493 81.587 64.7947 82.4083 64.472C83.2443 64.1493 84.227 63.988 85.3563 63.988C86.1923 63.988 87.021 64.0833 87.8423 64.274C88.6783 64.45 89.3677 64.6993 89.9103 65.022L88.7663 67.464C87.725 66.8773 86.5883 66.584 85.3563 66.584C84.623 66.584 84.073 66.6867 83.7063 66.892C83.3397 67.0973 83.1563 67.3613 83.1563 67.684C83.1563 68.0507 83.3543 68.3073 83.7503 68.454C84.1463 68.6007 84.777 68.74 85.6423 68.872C86.6103 69.0333 87.4023 69.2093 88.0183 69.4C88.6343 69.576 89.1697 69.906 89.6243 70.39C90.079 70.874 90.3063 71.5487 90.3063 72.414C90.3063 73.1473 90.0863 73.8 89.6463 74.372C89.2063 74.944 88.561 75.3913 87.7103 75.714C86.8743 76.022 85.877 76.176 84.7183 76.176ZM103.957 64.164L98.611 76.726C98.0683 78.09 97.3937 79.0507 96.587 79.608C95.795 80.1653 94.8343 80.444 93.705 80.444C93.089 80.444 92.4803 80.3487 91.879 80.158C91.2777 79.9673 90.7863 79.7033 90.405 79.366L91.659 76.924C91.923 77.1587 92.2237 77.342 92.561 77.474C92.913 77.606 93.2577 77.672 93.595 77.672C94.0643 77.672 94.4457 77.5547 94.739 77.32C95.0323 77.1 95.2963 76.726 95.531 76.198L95.575 76.088L90.449 64.164H93.991L97.313 72.194L100.657 64.164H103.957Z" fill="white"/>
<path d="M128.836 40.8466C123.213 26.2286 115.635 16.8796 104.616 5.86036C112.136 3.16906 124.469 7.61587 131.527 8.00798C136.493 8.28383 139.445 8.17744 143.909 10.1613C151.443 13.5097 159.433 24.5833 163.588 31.4556C169.214 40.7598 174.594 48.6266 174.594 59.8081C174.594 73.2693 167.179 87.1945 161.914 99.2862C156.93 110.729 148.839 128.513 137.389 135.056C130.939 138.742 124.29 140.867 117.531 143.908C113.679 145.642 106.119 147.976 101.919 147.976C88.0489 147.976 74.6267 143.669 61.0051 143.669C56.3965 143.669 52.0672 141.754 47.5466 141.516C44.8581 141.374 42.0805 139.788 39.4118 139.303C36.839 138.835 33.1486 137.943 30.8582 136.671C21.2558 131.336 13.3938 126.652 7.94888 116.752C1.17142 104.43 -5.38966 86.0368 6.8722 75.0012C16.2391 66.5709 27.5607 84.9229 32.4732 89.8354C34.7165 92.0787 50.7767 113.503 50.7767 100.602C50.7767 97.5293 50.4665 76.0251 58.8517 80.6836C71.4345 87.6741 79.7421 104.909 95.5185 104.909C106.12 104.909 119.455 101.213 125.067 91.3906C128.012 86.237 131.527 81.7118 131.527 75.5993C131.527 64.212 133.011 51.7021 128.836 40.8466Z" fill="white" fill-opacity="0.3"/>
</svg>
