<svg width="185" height="185" viewBox="0 0 185 185" fill="none" xmlns="http://www.w3.org/2000/svg">
<path d="M44.5332 141.504C34.5388 131.984 20.1814 100.294 27.304 68.6725C39.4568 35.0234 70.8153 29.4901 83.4972 27.4313C96.179 25.3725 111.765 27.0328 122.99 31.5066C140.897 41.7206 147.342 52.6263 151.901 60.3419C157.711 70.173 160.697 81.7793 159.365 93.0613C156.827 114.542 152.201 135.626 132.047 147.535C119.334 155.047 99.8241 159.902 85.485 158.359C73.9132 157.113 58.5781 154.881 44.5332 141.504Z" fill="#00C5CE"/>
<path d="M72.0368 101.264C70.4675 101.264 69.0448 100.927 67.7688 100.252C66.5075 99.5627 65.5102 98.6167 64.7768 97.414C64.0582 96.1967 63.6988 94.8253 63.6988 93.3C63.6988 91.7747 64.0582 90.4107 64.7768 89.208C65.5102 87.9907 66.5075 87.0447 67.7688 86.37C69.0448 85.6807 70.4748 85.336 72.0588 85.336C73.3935 85.336 74.5962 85.5707 75.6668 86.04C76.7522 86.5093 77.6615 87.184 78.3948 88.064L76.1068 90.176C75.0655 88.9733 73.7748 88.372 72.2348 88.372C71.2815 88.372 70.4308 88.5847 69.6828 89.01C68.9348 89.4207 68.3482 90 67.9228 90.748C67.5122 91.496 67.3068 92.3467 67.3068 93.3C67.3068 94.2533 67.5122 95.104 67.9228 95.852C68.3482 96.6 68.9348 97.1867 69.6828 97.612C70.4308 98.0227 71.2815 98.228 72.2348 98.228C73.7748 98.228 75.0655 97.6193 76.1068 96.402L78.3948 98.514C77.6615 99.4087 76.7522 100.091 75.6668 100.56C74.5815 101.029 73.3715 101.264 72.0368 101.264ZM85.2476 88.988C87.081 88.988 88.489 89.428 89.4716 90.308C90.4543 91.1733 90.9456 92.486 90.9456 94.246V101H87.7336V99.526C87.0883 100.626 85.8856 101.176 84.1256 101.176C83.2163 101.176 82.4243 101.022 81.7496 100.714C81.0896 100.406 80.5836 99.9807 80.2316 99.438C79.8796 98.8953 79.7036 98.2793 79.7036 97.59C79.7036 96.49 80.1143 95.6247 80.9356 94.994C81.7716 94.3633 83.055 94.048 84.7856 94.048H87.5136C87.5136 93.3 87.2863 92.728 86.8316 92.332C86.377 91.9213 85.695 91.716 84.7856 91.716C84.155 91.716 83.5316 91.8187 82.9156 92.024C82.3143 92.2147 81.801 92.4787 81.3756 92.816L80.1436 90.418C80.789 89.9633 81.559 89.6113 82.4536 89.362C83.363 89.1127 84.2943 88.988 85.2476 88.988ZM84.9836 98.866C85.5703 98.866 86.091 98.734 86.5456 98.47C87.0003 98.1913 87.323 97.788 87.5136 97.26V96.05H85.1596C83.7516 96.05 83.0476 96.512 83.0476 97.436C83.0476 97.876 83.2163 98.228 83.5536 98.492C83.9056 98.7413 84.3823 98.866 84.9836 98.866ZM94.0518 84.676H97.4838V101H94.0518V84.676ZM115.827 88.988C117.308 88.988 118.482 89.428 119.347 90.308C120.227 91.1733 120.667 92.4787 120.667 94.224V101H117.235V94.752C117.235 93.8133 117.037 93.1167 116.641 92.662C116.26 92.1927 115.71 91.958 114.991 91.958C114.184 91.958 113.546 92.222 113.077 92.75C112.608 93.2633 112.373 94.0333 112.373 95.06V101H108.941V94.752C108.941 92.8893 108.193 91.958 106.697 91.958C105.905 91.958 105.274 92.222 104.805 92.75C104.336 93.2633 104.101 94.0333 104.101 95.06V101H100.669V89.164H103.947V90.528C104.387 90.0293 104.922 89.648 105.553 89.384C106.198 89.12 106.902 88.988 107.665 88.988C108.501 88.988 109.256 89.1567 109.931 89.494C110.606 89.8167 111.148 90.2933 111.559 90.924C112.043 90.308 112.652 89.8313 113.385 89.494C114.133 89.1567 114.947 88.988 115.827 88.988Z" fill="white"/>
<path d="M14.8823 125.876C11.821 126.259 8.15066 126.706 5.33289 127.874C5.33289 129.731 5.99273 131.68 5.99273 133.666C5.99273 135.854 6.63194 138.127 7.14746 140.246C8.19095 144.536 8.78508 148.815 9.21863 153.205C9.4678 155.728 9.69113 158.279 10.4283 160.701C11.068 162.803 10.1783 166.29 11.4181 168.051C12.0044 168.885 14.3307 168.37 15.2305 168.62C16.9518 169.098 18.9575 168.966 20.7292 169.188C34.8026 170.947 49.1059 170.459 63.2525 171.351C69.9522 171.773 76.8336 171.754 83.5427 171.754C92.7307 171.754 101.944 171.951 111.128 171.681C124.785 171.279 138.412 170.764 152.075 170.764C156.513 170.764 161.091 170.75 165.473 169.921L165.5 169.916C166.691 169.691 169.61 169.139 169.946 167.63C170.626 164.568 169.647 160.512 169.304 157.256C168.49 149.526 168.974 141.565 168.974 133.794C168.974 132.347 169.521 122.793 166.811 123.567C164.838 124.131 163.11 125.161 161.129 125.821C155.388 127.735 150.069 127.411 144.157 127.214C139.253 127.051 135.227 123.882 130.74 122.119C128.459 121.223 126.215 120.616 123.775 120.616C122.143 120.616 119.761 120.646 118.331 121.441C117.507 121.898 116.413 122.055 115.527 122.522C114.373 123.129 113.452 123.567 112.393 124.392C110.659 125.74 108.709 126.97 106.784 128.039C105.689 128.647 104.566 129.329 103.393 129.78C102.454 130.142 101.407 130.183 100.515 130.679C99.5023 131.241 97.4996 130.844 96.3913 130.844C93.6773 130.844 90.8374 130.795 88.1433 130.495C82.3433 129.851 76.9556 127.75 71.2439 126.481C68.2184 125.809 65.2217 124.067 62.3361 122.999C60.8406 122.445 59.1754 122.262 57.6255 121.917C56.0494 121.567 54.3508 121.786 52.7683 121.349C49.7629 120.52 45.8673 121.499 42.8707 121.606C40.8611 121.677 38.8329 121.606 36.8221 121.606C34.663 121.606 32.6616 122.266 30.5536 122.266C28.0309 122.266 25.6074 123.546 23.1487 123.897C20.3351 124.299 17.6892 125.525 14.8823 125.876Z" fill="white" fill-opacity="0.3"/>
</svg>
