<svg width="245" height="135" viewBox="0 0 245 135" fill="none" xmlns="http://www.w3.org/2000/svg">
<path d="M79.475 0.799998V26H73.643V15.668H62.195V26H56.363V0.799998H62.195V10.736H73.643V0.799998H79.475ZM92.8532 6.344C95.8532 6.344 98.1572 7.064 99.7652 8.504C101.373 9.92 102.177 12.068 102.177 14.948V26H96.9212V23.588C95.8652 25.388 93.8972 26.288 91.0172 26.288C89.5292 26.288 88.2332 26.036 87.1292 25.532C86.0492 25.028 85.2212 24.332 84.6452 23.444C84.0692 22.556 83.7812 21.548 83.7812 20.42C83.7812 18.62 84.4532 17.204 85.7972 16.172C87.1652 15.14 89.2652 14.624 92.0972 14.624H96.5612C96.5612 13.4 96.1892 12.464 95.4452 11.816C94.7012 11.144 93.5852 10.808 92.0972 10.808C91.0652 10.808 90.0452 10.976 89.0372 11.312C88.0532 11.624 87.2132 12.056 86.5172 12.608L84.5012 8.684C85.5572 7.94 86.8172 7.364 88.2812 6.956C89.7692 6.548 91.2932 6.344 92.8532 6.344ZM92.4212 22.508C93.3812 22.508 94.2332 22.292 94.9772 21.86C95.7212 21.404 96.2492 20.744 96.5612 19.88V17.9H92.7092C90.4052 17.9 89.2532 18.656 89.2532 20.168C89.2532 20.888 89.5292 21.464 90.0812 21.896C90.6572 22.304 91.4372 22.508 92.4212 22.508ZM126.132 6.632L117.96 26H112.164L104.028 6.632H109.824L115.188 19.808L120.732 6.632H126.132ZM146.869 16.388C146.869 16.46 146.833 16.964 146.761 17.9H132.109C132.373 19.1 132.997 20.048 133.981 20.744C134.965 21.44 136.189 21.788 137.653 21.788C138.661 21.788 139.549 21.644 140.317 21.356C141.109 21.044 141.841 20.564 142.513 19.916L145.501 23.156C143.677 25.244 141.013 26.288 137.509 26.288C135.325 26.288 133.393 25.868 131.713 25.028C130.033 24.164 128.737 22.976 127.825 21.464C126.913 19.952 126.457 18.236 126.457 16.316C126.457 14.42 126.901 12.716 127.789 11.204C128.701 9.668 129.937 8.48 131.497 7.64C133.081 6.776 134.845 6.344 136.789 6.344C138.685 6.344 140.401 6.752 141.937 7.568C143.473 8.384 144.673 9.56 145.537 11.096C146.425 12.608 146.869 14.372 146.869 16.388ZM136.825 10.592C135.553 10.592 134.485 10.952 133.621 11.672C132.757 12.392 132.229 13.376 132.037 14.624H141.577C141.385 13.4 140.857 12.428 139.993 11.708C139.129 10.964 138.073 10.592 136.825 10.592ZM168.615 6.344C171.615 6.344 173.919 7.064 175.527 8.504C177.135 9.92 177.939 12.068 177.939 14.948V26H172.683V23.588C171.627 25.388 169.659 26.288 166.779 26.288C165.291 26.288 163.995 26.036 162.891 25.532C161.811 25.028 160.983 24.332 160.407 23.444C159.831 22.556 159.543 21.548 159.543 20.42C159.543 18.62 160.215 17.204 161.559 16.172C162.927 15.14 165.027 14.624 167.859 14.624H172.323C172.323 13.4 171.951 12.464 171.207 11.816C170.463 11.144 169.347 10.808 167.859 10.808C166.827 10.808 165.807 10.976 164.799 11.312C163.815 11.624 162.975 12.056 162.279 12.608L160.263 8.684C161.319 7.94 162.579 7.364 164.043 6.956C165.531 6.548 167.055 6.344 168.615 6.344ZM168.183 22.508C169.143 22.508 169.995 22.292 170.739 21.86C171.483 21.404 172.011 20.744 172.323 19.88V17.9H168.471C166.167 17.9 165.015 18.656 165.015 20.168C165.015 20.888 165.291 21.464 165.843 21.896C166.419 22.304 167.199 22.508 168.183 22.508ZM24.3634 76L24.3274 60.88L16.9114 73.336H14.2834L6.90336 61.204V76H1.43136V50.8H6.25536L15.6874 66.46L24.9754 50.8H29.7634L29.8354 76H24.3634ZM35.4182 56.632H41.0342V76H35.4182V56.632ZM38.2262 53.932C37.1942 53.932 36.3542 53.632 35.7062 53.032C35.0582 52.432 34.7342 51.688 34.7342 50.8C34.7342 49.912 35.0582 49.168 35.7062 48.568C36.3542 47.968 37.1942 47.668 38.2262 47.668C39.2582 47.668 40.0982 47.956 40.7462 48.532C41.3942 49.108 41.7182 49.828 41.7182 50.692C41.7182 51.628 41.3942 52.408 40.7462 53.032C40.0982 53.632 39.2582 53.932 38.2262 53.932ZM58.0183 56.344C60.4183 56.344 62.3503 57.064 63.8143 58.504C65.3023 59.944 66.0463 62.08 66.0463 64.912V76H60.4303V65.776C60.4303 64.24 60.0943 63.1 59.4223 62.356C58.7503 61.588 57.7783 61.204 56.5063 61.204C55.0903 61.204 53.9623 61.648 53.1223 62.536C52.2823 63.4 51.8623 64.696 51.8623 66.424V76H46.2463V56.632H51.6103V58.9C52.3543 58.084 53.2783 57.46 54.3823 57.028C55.4863 56.572 56.6983 56.344 58.0183 56.344ZM91.0759 49.288V76H85.7119V73.768C84.3199 75.448 82.3039 76.288 79.6639 76.288C77.8399 76.288 76.1839 75.88 74.6959 75.064C73.2319 74.248 72.0799 73.084 71.2399 71.572C70.3999 70.06 69.9799 68.308 69.9799 66.316C69.9799 64.324 70.3999 62.572 71.2399 61.06C72.0799 59.548 73.2319 58.384 74.6959 57.568C76.1839 56.752 77.8399 56.344 79.6639 56.344C82.1359 56.344 84.0679 57.124 85.4599 58.684V49.288H91.0759ZM80.6359 71.68C82.0519 71.68 83.2279 71.2 84.1639 70.24C85.0999 69.256 85.5679 67.948 85.5679 66.316C85.5679 64.684 85.0999 63.388 84.1639 62.428C83.2279 61.444 82.0519 60.952 80.6359 60.952C79.1959 60.952 78.0079 61.444 77.0719 62.428C76.1359 63.388 75.6679 64.684 75.6679 66.316C75.6679 67.948 76.1359 69.256 77.0719 70.24C78.0079 71.2 79.1959 71.68 80.6359 71.68ZM102.43 57.064H107.398V61.384H102.574V76H96.9576V61.384H93.9696V57.064H96.9576V56.2C96.9576 53.992 97.6056 52.24 98.9016 50.944C100.222 49.648 102.07 49 104.446 49C105.286 49 106.078 49.096 106.822 49.288C107.59 49.456 108.226 49.708 108.73 50.044L107.254 54.112C106.606 53.656 105.85 53.428 104.986 53.428C103.282 53.428 102.43 54.364 102.43 56.236V57.064ZM129.708 56.632V76H124.38V73.696C123.636 74.536 122.748 75.184 121.716 75.64C120.684 76.072 119.568 76.288 118.368 76.288C115.824 76.288 113.808 75.556 112.32 74.092C110.832 72.628 110.088 70.456 110.088 67.576V56.632H115.704V66.748C115.704 69.868 117.012 71.428 119.628 71.428C120.972 71.428 122.052 70.996 122.868 70.132C123.684 69.244 124.092 67.936 124.092 66.208V56.632H129.708ZM134.91 49.288H140.526V76H134.91V49.288ZM145.738 49.288H151.354V76H145.738V49.288ZM167.158 50.8H178.606C181.342 50.8 183.754 51.328 185.842 52.384C187.954 53.416 189.586 54.88 190.738 56.776C191.914 58.672 192.502 60.88 192.502 63.4C192.502 65.92 191.914 68.128 190.738 70.024C189.586 71.92 187.954 73.396 185.842 74.452C183.754 75.484 181.342 76 178.606 76H167.158V50.8ZM178.318 71.212C180.838 71.212 182.842 70.516 184.33 69.124C185.842 67.708 186.598 65.8 186.598 63.4C186.598 61 185.842 59.104 184.33 57.712C182.842 56.296 180.838 55.588 178.318 55.588H172.99V71.212H178.318ZM204.316 56.344C207.316 56.344 209.62 57.064 211.228 58.504C212.836 59.92 213.64 62.068 213.64 64.948V76H208.384V73.588C207.328 75.388 205.36 76.288 202.48 76.288C200.992 76.288 199.696 76.036 198.592 75.532C197.512 75.028 196.684 74.332 196.108 73.444C195.532 72.556 195.244 71.548 195.244 70.42C195.244 68.62 195.916 67.204 197.26 66.172C198.628 65.14 200.728 64.624 203.56 64.624H208.024C208.024 63.4 207.652 62.464 206.908 61.816C206.164 61.144 205.048 60.808 203.56 60.808C202.528 60.808 201.508 60.976 200.5 61.312C199.516 61.624 198.676 62.056 197.98 62.608L195.964 58.684C197.02 57.94 198.28 57.364 199.744 56.956C201.232 56.548 202.756 56.344 204.316 56.344ZM203.884 72.508C204.844 72.508 205.696 72.292 206.44 71.86C207.184 71.404 207.712 70.744 208.024 69.88V67.9H204.172C201.868 67.9 200.716 68.656 200.716 70.168C200.716 70.888 200.992 71.464 201.544 71.896C202.12 72.304 202.9 72.508 203.884 72.508ZM237.595 56.632L228.847 77.188C227.959 79.42 226.855 80.992 225.535 81.904C224.239 82.816 222.667 83.272 220.819 83.272C219.811 83.272 218.815 83.116 217.831 82.804C216.847 82.492 216.043 82.06 215.419 81.508L217.471 77.512C217.903 77.896 218.395 78.196 218.947 78.412C219.523 78.628 220.087 78.736 220.639 78.736C221.407 78.736 222.031 78.544 222.511 78.16C222.991 77.8 223.423 77.188 223.807 76.324L223.879 76.144L215.491 56.632H221.287L226.723 69.772L232.195 56.632H237.595ZM240.851 76.288C239.867 76.288 239.039 75.952 238.367 75.28C237.695 74.608 237.359 73.768 237.359 72.76C237.359 71.728 237.695 70.9 238.367 70.276C239.039 69.628 239.867 69.304 240.851 69.304C241.835 69.304 242.663 69.628 243.335 70.276C244.007 70.9 244.343 71.728 244.343 72.76C244.343 73.768 244.007 74.608 243.335 75.28C242.663 75.952 241.835 76.288 240.851 76.288Z" fill="#00C5CE"/>
<path d="M8.195 126.648C6.683 126.648 5.351 126.384 4.199 125.856C3.047 125.328 2.159 124.596 1.535 123.66C0.911 122.7 0.599 121.596 0.599 120.348C0.599 119.292 0.815 118.332 1.247 117.468C1.703 116.604 2.303 115.92 3.047 115.416C3.815 114.912 4.655 114.66 5.567 114.66C6.407 114.66 7.115 114.876 7.691 115.308C8.267 115.716 8.627 116.292 8.771 117.036C7.523 117.036 6.527 117.372 5.783 118.044C5.039 118.692 4.667 119.58 4.667 120.708C4.667 121.74 4.979 122.568 5.603 123.192C6.227 123.816 7.055 124.128 8.087 124.128C9.359 124.128 10.403 123.708 11.219 122.868C12.059 122.004 12.479 120.924 12.479 119.628C12.479 118.5 12.167 117.432 11.543 116.424C10.919 115.416 9.983 114.192 8.735 112.752C7.439 111.264 6.455 109.992 5.783 108.936C5.135 107.856 4.811 106.68 4.811 105.408C4.811 104.16 5.159 103.044 5.855 102.06C6.551 101.052 7.511 100.26 8.735 99.684C9.959 99.108 11.339 98.82 12.875 98.82C14.819 98.82 16.367 99.276 17.519 100.188C18.695 101.1 19.283 102.324 19.283 103.86C19.283 104.868 19.031 105.684 18.527 106.308C18.023 106.932 17.363 107.244 16.547 107.244C15.635 107.244 14.903 106.872 14.351 106.128C14.807 105.792 15.167 105.348 15.431 104.796C15.695 104.244 15.827 103.668 15.827 103.068C15.827 102.3 15.599 101.688 15.143 101.232C14.687 100.776 14.063 100.548 13.271 100.548C12.311 100.548 11.519 100.896 10.895 101.592C10.295 102.264 9.995 103.128 9.995 104.184C9.995 105.144 10.271 106.044 10.823 106.884C11.375 107.7 12.239 108.756 13.415 110.052C14.375 111.084 15.143 111.972 15.719 112.716C16.319 113.46 16.823 114.324 17.231 115.308C17.663 116.268 17.879 117.312 17.879 118.44C17.879 119.976 17.447 121.368 16.583 122.616C15.743 123.864 14.579 124.848 13.091 125.568C11.627 126.288 9.995 126.648 8.195 126.648ZM25.0543 126.216C23.2783 126.216 21.8983 125.76 20.9143 124.848C19.9303 123.912 19.4382 122.46 19.4382 120.492C19.4382 118.836 19.7622 117.012 20.4103 115.02C21.0583 113.028 22.1143 111.312 23.5783 109.872C25.0423 108.408 26.9023 107.676 29.1582 107.676C31.7983 107.676 33.1183 108.828 33.1183 111.132C33.1183 112.476 32.7343 113.712 31.9663 114.84C31.1983 115.968 30.1783 116.88 28.9062 117.576C27.6343 118.248 26.2783 118.632 24.8383 118.728C24.7903 119.448 24.7663 119.928 24.7663 120.168C24.7663 121.344 24.9703 122.148 25.3783 122.58C25.7863 122.988 26.4463 123.192 27.3583 123.192C28.6543 123.192 29.7583 122.892 30.6703 122.292C31.6063 121.692 32.6263 120.78 33.7303 119.556H34.9543C32.2903 123.996 28.9903 126.216 25.0543 126.216ZM25.1263 117C26.0143 116.952 26.8543 116.64 27.6463 116.064C28.4623 115.488 29.1103 114.756 29.5903 113.868C30.0943 112.98 30.3463 112.044 30.3463 111.06C30.3463 110.076 30.0463 109.584 29.4463 109.584C28.5823 109.584 27.7303 110.34 26.8903 111.852C26.0743 113.364 25.4863 115.08 25.1263 117ZM38.7987 126.216C37.0467 126.216 35.6787 125.76 34.6947 124.848C33.7107 123.912 33.2187 122.46 33.2187 120.492C33.2187 118.836 33.5427 117.012 34.1907 115.02C34.8387 113.028 35.8947 111.312 37.3587 109.872C38.8227 108.408 40.6827 107.676 42.9387 107.676C45.5787 107.676 46.8987 108.828 46.8987 111.132C46.8987 112.476 46.5147 113.712 45.7467 114.84C44.9787 115.968 43.9587 116.88 42.6867 117.576C41.4147 118.248 40.0587 118.632 38.6187 118.728C38.5707 119.256 38.5467 119.616 38.5467 119.808C38.5467 121.8 39.2907 122.796 40.7787 122.796C41.4507 122.796 42.1707 122.616 42.9387 122.256C43.7067 121.896 44.4027 121.44 45.0267 120.888C44.3787 124.44 42.3027 126.216 38.7987 126.216ZM38.8707 117C39.7827 116.976 40.6347 116.676 41.4267 116.1C42.2427 115.524 42.8907 114.792 43.3707 113.904C43.8747 112.992 44.1267 112.044 44.1267 111.06C44.1267 110.076 43.8267 109.584 43.2267 109.584C42.3867 109.584 41.5467 110.352 40.7067 111.888C39.8907 113.4 39.2787 115.104 38.8707 117ZM60.3269 135C59.1749 135 58.2149 134.7 57.4469 134.1C56.6789 133.5 56.2949 132.636 56.2949 131.508C56.2949 130.14 56.8469 129.036 57.9509 128.196C59.0549 127.38 60.4589 126.696 62.1629 126.144L62.5949 124.2C61.8989 124.968 61.1909 125.496 60.4709 125.784C59.7509 126.072 59.0189 126.216 58.2749 126.216C57.1229 126.216 56.1869 125.856 55.4669 125.136C54.7709 124.416 54.4229 123.336 54.4229 121.896C54.4229 121.296 54.5189 120.516 54.7109 119.556L57.1589 108H62.3429L59.7509 120.24C59.6789 120.528 59.6429 120.828 59.6429 121.14C59.6429 122.196 60.0029 122.724 60.7229 122.724C61.3469 122.724 61.8989 122.46 62.3789 121.932C62.8589 121.38 63.2429 120.66 63.5309 119.772L66.0509 108H71.2349L67.6709 124.704C68.8229 124.32 69.7469 123.744 70.4429 122.976C71.1389 122.208 71.7269 121.068 72.2069 119.556H73.7189C73.0709 121.692 72.1949 123.264 71.0909 124.272C69.9869 125.256 68.7389 125.928 67.3469 126.288L66.8069 128.88C66.3269 131.208 65.4989 132.804 64.3229 133.668C63.1469 134.556 61.8149 135 60.3269 135ZM59.4989 132.192C59.9069 132.192 60.3029 131.916 60.6869 131.364C61.0709 130.812 61.3709 130.02 61.5869 128.988L61.8029 127.944C59.4509 128.808 58.2749 129.828 58.2749 131.004C58.2749 131.316 58.3829 131.592 58.5989 131.832C58.8149 132.072 59.1149 132.192 59.4989 132.192ZM77.4748 126.144C75.6988 126.144 74.2948 125.688 73.2628 124.776C72.2308 123.864 71.7147 122.424 71.7147 120.456C71.7147 118.824 72.0507 117.012 72.7228 115.02C73.3948 113.028 74.4748 111.312 75.9628 109.872C77.4508 108.408 79.3228 107.676 81.5788 107.676C84.6508 107.676 86.1868 109.596 86.1868 113.436V113.472C86.2588 113.496 86.3908 113.508 86.5828 113.508C87.3748 113.508 88.2868 113.304 89.3188 112.896C90.3508 112.464 91.2868 111.948 92.1268 111.348L92.4508 112.32C91.7548 113.064 90.8428 113.7 89.7148 114.228C88.6108 114.732 87.3988 115.092 86.0788 115.308C85.8868 117.492 85.3948 119.4 84.6028 121.032C83.8108 122.664 82.7908 123.924 81.5428 124.812C80.2948 125.7 78.9388 126.144 77.4748 126.144ZM78.9148 122.904C79.4908 122.904 80.0668 122.58 80.6428 121.932C81.2188 121.26 81.7228 120.36 82.1548 119.232C82.5868 118.08 82.8988 116.808 83.0908 115.416C82.4428 115.272 82.1188 114.768 82.1188 113.904C82.1188 112.92 82.4908 112.272 83.2348 111.96C83.1868 111.168 83.0668 110.628 82.8748 110.34C82.6828 110.028 82.3468 109.872 81.8668 109.872C81.0748 109.872 80.3068 110.448 79.5628 111.6C78.8188 112.752 78.2188 114.132 77.7628 115.74C77.3068 117.348 77.0788 118.764 77.0788 119.988C77.0788 121.14 77.2108 121.92 77.4748 122.328C77.7388 122.712 78.2188 122.904 78.9148 122.904ZM91.6031 126.216C90.4511 126.216 89.5151 125.856 88.7951 125.136C88.0991 124.416 87.7511 123.336 87.7511 121.896C87.7511 121.296 87.8471 120.516 88.0391 119.556L90.4871 108H95.6711L93.0791 120.24C93.0071 120.528 92.9711 120.828 92.9711 121.14C92.9711 122.196 93.3311 122.724 94.0511 122.724C94.7231 122.724 95.2991 122.448 95.7791 121.896C96.2591 121.32 96.6431 120.54 96.9311 119.556L99.3791 108H104.563L101.971 120.24C101.875 120.6 101.827 120.984 101.827 121.392C101.827 121.872 101.935 122.22 102.151 122.436C102.391 122.628 102.775 122.724 103.303 122.724C103.687 122.724 103.963 122.7 104.131 122.652C104.323 122.58 104.443 122.532 104.491 122.508C104.395 123.732 103.975 124.656 103.231 125.28C102.487 125.904 101.575 126.216 100.495 126.216C99.4871 126.216 98.6711 125.916 98.0471 125.316C97.4471 124.716 97.0871 123.876 96.9671 122.796C96.1511 124.116 95.2871 125.016 94.3751 125.496C93.4871 125.976 92.5631 126.216 91.6031 126.216ZM125.363 126.216C123.899 126.216 122.819 125.832 122.123 125.064C121.451 124.272 121.115 123.3 121.115 122.148C121.115 121.644 121.175 121.08 121.295 120.456C121.415 119.808 121.535 119.184 121.655 118.584C121.799 117.984 121.895 117.6 121.943 117.432C122.135 116.592 122.315 115.764 122.483 114.948C122.651 114.132 122.735 113.472 122.735 112.968C122.735 111.744 122.303 111.132 121.439 111.132C120.815 111.132 120.263 111.444 119.783 112.068C119.303 112.668 118.919 113.46 118.631 114.444L116.183 126H110.999L114.815 108H119.999L119.603 109.872C120.803 108.528 122.207 107.856 123.815 107.856C125.039 107.856 126.011 108.192 126.731 108.864C127.451 109.536 127.811 110.556 127.811 111.924C127.811 112.62 127.727 113.4 127.559 114.264C127.391 115.104 127.151 116.136 126.839 117.36C126.647 118.104 126.467 118.836 126.299 119.556C126.155 120.252 126.083 120.804 126.083 121.212C126.083 121.692 126.191 122.064 126.407 122.328C126.623 122.592 126.995 122.724 127.523 122.724C128.243 122.724 128.819 122.472 129.251 121.968C129.683 121.44 130.115 120.636 130.547 119.556H132.059C131.171 122.196 130.139 123.972 128.963 124.884C127.811 125.772 126.611 126.216 125.363 126.216ZM136.483 126.216C134.563 126.216 133.015 125.748 131.839 124.812C130.663 123.876 130.075 122.388 130.075 120.348C130.075 118.764 130.399 116.988 131.047 115.02C131.695 113.052 132.751 111.336 134.215 109.872C135.679 108.408 137.539 107.676 139.795 107.676C142.435 107.676 143.755 108.828 143.755 111.132C143.755 112.476 143.371 113.712 142.603 114.84C141.835 115.968 140.815 116.88 139.543 117.576C138.271 118.248 136.903 118.632 135.439 118.728C135.415 118.944 135.403 119.268 135.403 119.7C135.403 122.076 136.603 123.264 139.003 123.264C140.371 123.264 141.835 122.904 143.395 122.184C144.955 121.464 146.311 120.456 147.463 119.16L145.411 108H150.487L151.891 115.776C152.971 114.624 153.811 113.544 154.411 112.536C155.011 111.528 155.311 110.7 155.311 110.052C155.311 109.836 155.299 109.692 155.275 109.62C154.939 109.668 154.723 109.692 154.627 109.692C154.051 109.692 153.631 109.512 153.367 109.152C153.103 108.792 152.971 108.348 152.971 107.82C152.971 107.22 153.151 106.764 153.511 106.452C153.871 106.14 154.339 105.984 154.915 105.984C155.731 105.984 156.355 106.284 156.787 106.884C157.219 107.46 157.435 108.204 157.435 109.116C157.435 110.268 157.039 111.504 156.247 112.824C155.455 114.144 154.135 115.8 152.287 117.792L152.611 119.556C152.635 119.676 152.707 120.06 152.827 120.708C152.971 121.332 153.199 121.824 153.511 122.184C153.823 122.544 154.231 122.724 154.735 122.724C155.431 122.724 156.079 122.436 156.679 121.86C157.279 121.26 157.711 120.492 157.975 119.556H159.487C158.599 122.148 157.483 123.912 156.139 124.848C154.795 125.76 153.475 126.216 152.179 126.216C150.979 126.216 150.067 125.844 149.443 125.1C148.819 124.356 148.291 123.06 147.859 121.212C146.419 122.724 144.655 123.936 142.567 124.848C140.503 125.76 138.475 126.216 136.483 126.216ZM135.727 117C136.639 116.976 137.491 116.676 138.283 116.1C139.099 115.524 139.747 114.792 140.227 113.904C140.731 112.992 140.983 112.044 140.983 111.06C140.983 110.076 140.683 109.584 140.083 109.584C139.243 109.584 138.403 110.364 137.563 111.924C136.723 113.46 136.111 115.152 135.727 117ZM161.349 126.216C160.125 126.216 159.213 125.844 158.613 125.1C158.037 124.356 157.749 123.372 157.749 122.148C157.749 121.524 157.821 120.888 157.965 120.24L160.269 109.44H159.081L159.369 108H160.557L161.637 103.032L166.965 102.312C166.749 103.224 166.629 103.764 166.605 103.932C166.437 104.604 166.149 105.96 165.741 108H167.901L167.613 109.44H165.453L163.149 120.24C163.029 120.768 162.969 121.188 162.969 121.5C162.969 122.364 163.389 122.796 164.229 122.796C164.661 122.796 164.973 122.76 165.165 122.688C164.685 124.08 164.121 125.016 163.473 125.496C162.825 125.976 162.117 126.216 161.349 126.216ZM179.283 126.216C178.131 126.216 177.195 125.856 176.475 125.136C175.779 124.416 175.431 123.336 175.431 121.896C175.431 121.296 175.527 120.516 175.719 119.556L177.879 109.44H176.691L176.979 108H178.167L179.247 103.032L184.575 102.312L183.351 108H185.511L185.223 109.44H183.063L180.759 120.24C180.663 120.6 180.615 120.984 180.615 121.392C180.615 121.872 180.723 122.22 180.939 122.436C181.179 122.628 181.563 122.724 182.091 122.724C182.787 122.724 183.435 122.436 184.035 121.86C184.635 121.26 185.067 120.492 185.331 119.556H186.843C185.955 122.148 184.815 123.912 183.423 124.848C182.031 125.76 180.651 126.216 179.283 126.216ZM191.328 106.056C190.536 106.056 189.864 105.78 189.312 105.228C188.76 104.676 188.484 104.004 188.484 103.212C188.484 102.42 188.76 101.748 189.312 101.196C189.864 100.62 190.536 100.332 191.328 100.332C192.12 100.332 192.792 100.62 193.344 101.196C193.92 101.748 194.208 102.42 194.208 103.212C194.208 104.004 193.92 104.676 193.344 105.228C192.792 105.78 192.12 106.056 191.328 106.056ZM188.88 126.216C187.728 126.216 186.792 125.856 186.072 125.136C185.376 124.416 185.028 123.336 185.028 121.896C185.028 121.296 185.124 120.516 185.316 119.556L187.764 108H192.948L190.356 120.24C190.26 120.6 190.212 120.984 190.212 121.392C190.212 121.872 190.32 122.22 190.536 122.436C190.776 122.628 191.16 122.724 191.688 122.724C192.384 122.724 193.032 122.436 193.632 121.86C194.232 121.26 194.664 120.492 194.928 119.556H196.44C195.552 122.148 194.412 123.912 193.02 124.848C191.628 125.76 190.248 126.216 188.88 126.216ZM216.802 126.216C215.338 126.216 214.258 125.832 213.562 125.064C212.89 124.272 212.554 123.3 212.554 122.148C212.554 121.644 212.614 121.08 212.734 120.456C212.854 119.808 212.974 119.184 213.094 118.584C213.238 117.984 213.334 117.6 213.382 117.432C213.574 116.592 213.754 115.764 213.922 114.948C214.09 114.132 214.174 113.472 214.174 112.968C214.174 111.744 213.742 111.132 212.878 111.132C212.254 111.132 211.702 111.444 211.222 112.068C210.742 112.668 210.358 113.46 210.07 114.444L207.622 126H202.438L205.066 113.58C205.138 113.292 205.174 112.992 205.174 112.68C205.174 111.624 204.814 111.096 204.094 111.096C203.422 111.096 202.834 111.408 202.33 112.032C201.85 112.632 201.466 113.436 201.178 114.444L198.73 126H193.546L197.362 108H202.546L202.15 109.872C203.374 108.504 204.838 107.82 206.542 107.82C208.654 107.82 209.89 108.852 210.25 110.916C211.57 108.876 213.238 107.856 215.254 107.856C216.478 107.856 217.45 108.192 218.17 108.864C218.89 109.536 219.25 110.556 219.25 111.924C219.25 112.62 219.166 113.4 218.998 114.264C218.83 115.104 218.59 116.136 218.278 117.36C218.086 118.104 217.906 118.836 217.738 119.556C217.594 120.252 217.522 120.804 217.522 121.212C217.522 121.692 217.63 122.064 217.846 122.328C218.062 122.592 218.434 122.724 218.962 122.724C219.682 122.724 220.258 122.472 220.69 121.968C221.122 121.44 221.554 120.636 221.986 119.556H223.498C222.61 122.196 221.578 123.972 220.402 124.884C219.25 125.772 218.05 126.216 216.802 126.216ZM227.06 126.216C225.308 126.216 223.94 125.76 222.956 124.848C221.972 123.912 221.48 122.46 221.48 120.492C221.48 118.836 221.804 117.012 222.452 115.02C223.1 113.028 224.156 111.312 225.62 109.872C227.084 108.408 228.944 107.676 231.2 107.676C233.84 107.676 235.16 108.828 235.16 111.132C235.16 112.476 234.776 113.712 234.008 114.84C233.24 115.968 232.22 116.88 230.948 117.576C229.676 118.248 228.32 118.632 226.88 118.728C226.832 119.256 226.808 119.616 226.808 119.808C226.808 121.8 227.552 122.796 229.04 122.796C229.712 122.796 230.432 122.616 231.2 122.256C231.968 121.896 232.664 121.44 233.288 120.888C232.64 124.44 230.564 126.216 227.06 126.216ZM227.132 117C228.044 116.976 228.896 116.676 229.688 116.1C230.504 115.524 231.152 114.792 231.632 113.904C232.136 112.992 232.388 112.044 232.388 111.06C232.388 110.076 232.088 109.584 231.488 109.584C230.648 109.584 229.808 110.352 228.968 111.888C228.152 113.4 227.54 115.104 227.132 117ZM239.128 126.144C238.336 126.144 237.664 125.868 237.112 125.316C236.56 124.764 236.284 124.092 236.284 123.3C236.284 122.508 236.56 121.836 237.112 121.284C237.664 120.708 238.336 120.42 239.128 120.42C239.92 120.42 240.592 120.708 241.144 121.284C241.72 121.836 242.008 122.508 242.008 123.3C242.008 124.092 241.72 124.764 241.144 125.316C240.592 125.868 239.92 126.144 239.128 126.144Z" fill="#FEB81A"/>
</svg>
