<svg width="172" height="171" viewBox="0 0 172 171" fill="none" xmlns="http://www.w3.org/2000/svg">
<path d="M28.0175 122.889C20.3346 111.422 13.2187 77.3674 27.0531 48.0538C46.2383 17.8565 78.0493 19.281 90.8753 20.0318C103.701 20.7826 118.552 25.7953 128.534 32.605C143.789 46.4717 147.706 58.5187 150.477 67.0416C154.007 77.9015 154.396 89.8796 150.64 100.601C143.488 121.014 134.383 140.586 112.121 147.823C98.0777 152.388 77.9786 152.88 64.3191 148.253C53.2956 144.519 38.8142 139.002 28.0175 122.889Z" fill="#7EBC01"/>
<path d="M75.8019 121.607C57.4861 122.927 31.8345 122.019 31.2923 145.865L34.8303 163.935L171.512 137.174L152.681 41C153.567 45.522 147.108 52.3149 144.47 55.8236C139.774 62.0698 132.577 62.5075 125.404 63.9119C119.714 65.026 112.017 61.1275 106.797 65.5275C102.331 69.2929 98.1382 73.0759 99.4558 79.8055C101.039 87.8906 101.689 96.7204 100.626 104.957C98.9444 117.979 87.071 120.794 75.8019 121.607Z" fill="white" fill-opacity="0.2"/>
<path d="M34.0418 95.264C32.4431 95.264 30.9985 94.9193 29.7078 94.23C28.4318 93.5407 27.4271 92.5947 26.6938 91.392C25.9751 90.1747 25.6158 88.8107 25.6158 87.3C25.6158 85.7893 25.9751 84.4327 26.6938 83.23C27.4271 82.0127 28.4318 81.0593 29.7078 80.37C30.9985 79.6807 32.4431 79.336 34.0418 79.336C35.6405 79.336 37.0778 79.6807 38.3538 80.37C39.6298 81.0593 40.6345 82.0127 41.3678 83.23C42.1011 84.4327 42.4678 85.7893 42.4678 87.3C42.4678 88.8107 42.1011 90.1747 41.3678 91.392C40.6345 92.5947 39.6298 93.5407 38.3538 94.23C37.0778 94.9193 35.6405 95.264 34.0418 95.264ZM34.0418 92.228C34.9511 92.228 35.7725 92.0227 36.5058 91.612C37.2391 91.1867 37.8111 90.6 38.2218 89.852C38.6471 89.104 38.8598 88.2533 38.8598 87.3C38.8598 86.3467 38.6471 85.496 38.2218 84.748C37.8111 84 37.2391 83.4207 36.5058 83.01C35.7725 82.5847 34.9511 82.372 34.0418 82.372C33.1325 82.372 32.3111 82.5847 31.5778 83.01C30.8445 83.4207 30.2651 84 29.8398 84.748C29.4291 85.496 29.2238 86.3467 29.2238 87.3C29.2238 88.2533 29.4291 89.104 29.8398 89.852C30.2651 90.6 30.8445 91.1867 31.5778 91.612C32.3111 92.0227 33.1325 92.228 34.0418 92.228ZM51.9003 82.988C53.0003 82.988 53.9976 83.2447 54.8923 83.758C55.8016 84.2567 56.513 84.968 57.0263 85.892C57.5396 86.8013 57.7963 87.8647 57.7963 89.082C57.7963 90.2993 57.5396 91.37 57.0263 92.294C56.513 93.2033 55.8016 93.9147 54.8923 94.428C53.9976 94.9267 53.0003 95.176 51.9003 95.176C50.3896 95.176 49.2016 94.6993 48.3363 93.746V99.268H44.9043V83.164H48.1823V84.528C49.033 83.5013 50.2723 82.988 51.9003 82.988ZM51.3063 92.36C52.1863 92.36 52.905 92.0667 53.4623 91.48C54.0343 90.8787 54.3203 90.0793 54.3203 89.082C54.3203 88.0847 54.0343 87.2927 53.4623 86.706C52.905 86.1047 52.1863 85.804 51.3063 85.804C50.4263 85.804 49.7003 86.1047 49.1283 86.706C48.571 87.2927 48.2923 88.0847 48.2923 89.082C48.2923 90.0793 48.571 90.8787 49.1283 91.48C49.7003 92.0667 50.4263 92.36 51.3063 92.36ZM67.7278 94.428C67.3904 94.6773 66.9724 94.868 66.4738 95C65.9898 95.1173 65.4764 95.176 64.9338 95.176C63.5258 95.176 62.4331 94.8167 61.6558 94.098C60.8931 93.3793 60.5118 92.3233 60.5118 90.93V86.068H58.6858V83.428H60.5118V80.546H63.9438V83.428H66.8918V86.068H63.9438V90.886C63.9438 91.3847 64.0684 91.7733 64.3178 92.052C64.5818 92.316 64.9484 92.448 65.4178 92.448C65.9604 92.448 66.4224 92.3013 66.8038 92.008L67.7278 94.428ZM69.6543 83.164H73.0863V95H69.6543V83.164ZM71.3703 81.514C70.7396 81.514 70.2263 81.3307 69.8303 80.964C69.4343 80.5973 69.2363 80.1427 69.2363 79.6C69.2363 79.0573 69.4343 78.6027 69.8303 78.236C70.2263 77.8693 70.7396 77.686 71.3703 77.686C72.001 77.686 72.5143 77.862 72.9103 78.214C73.3063 78.566 73.5043 79.006 73.5043 79.534C73.5043 80.106 73.3063 80.5827 72.9103 80.964C72.5143 81.3307 72.001 81.514 71.3703 81.514ZM91.4295 82.988C92.9108 82.988 94.0842 83.428 94.9495 84.308C95.8295 85.1733 96.2695 86.4787 96.2695 88.224V95H92.8375V88.752C92.8375 87.8133 92.6395 87.1167 92.2435 86.662C91.8622 86.1927 91.3122 85.958 90.5935 85.958C89.7868 85.958 89.1488 86.222 88.6795 86.75C88.2102 87.2633 87.9755 88.0333 87.9755 89.06V95H84.5435V88.752C84.5435 86.8893 83.7955 85.958 82.2995 85.958C81.5075 85.958 80.8768 86.222 80.4075 86.75C79.9382 87.2633 79.7035 88.0333 79.7035 89.06V95H76.2715V83.164H79.5495V84.528C79.9895 84.0293 80.5248 83.648 81.1555 83.384C81.8008 83.12 82.5048 82.988 83.2675 82.988C84.1035 82.988 84.8588 83.1567 85.5335 83.494C86.2082 83.8167 86.7508 84.2933 87.1615 84.924C87.6455 84.308 88.2542 83.8313 88.9875 83.494C89.7355 83.1567 90.5495 82.988 91.4295 82.988ZM99.3457 83.164H102.778V95H99.3457V83.164ZM101.062 81.514C100.431 81.514 99.9177 81.3307 99.5217 80.964C99.1257 80.5973 98.9277 80.1427 98.9277 79.6C98.9277 79.0573 99.1257 78.6027 99.5217 78.236C99.9177 77.8693 100.431 77.686 101.062 77.686C101.692 77.686 102.206 77.862 102.602 78.214C102.998 78.566 103.196 79.006 103.196 79.534C103.196 80.106 102.998 80.5827 102.602 80.964C102.206 81.3307 101.692 81.514 101.062 81.514ZM109.945 95.176C108.962 95.176 108.002 95.0587 107.063 94.824C106.124 94.5747 105.376 94.2667 104.819 93.9L105.963 91.436C106.491 91.7733 107.129 92.052 107.877 92.272C108.625 92.4773 109.358 92.58 110.077 92.58C111.529 92.58 112.255 92.2207 112.255 91.502C112.255 91.1647 112.057 90.9227 111.661 90.776C111.265 90.6293 110.656 90.5047 109.835 90.402C108.867 90.2553 108.068 90.0867 107.437 89.896C106.806 89.7053 106.256 89.368 105.787 88.884C105.332 88.4 105.105 87.7107 105.105 86.816C105.105 86.068 105.318 85.408 105.743 84.836C106.183 84.2493 106.814 83.7947 107.635 83.472C108.471 83.1493 109.454 82.988 110.583 82.988C111.419 82.988 112.248 83.0833 113.069 83.274C113.905 83.45 114.594 83.6993 115.137 84.022L113.993 86.464C112.952 85.8773 111.815 85.584 110.583 85.584C109.85 85.584 109.3 85.6867 108.933 85.892C108.566 86.0973 108.383 86.3613 108.383 86.684C108.383 87.0507 108.581 87.3073 108.977 87.454C109.373 87.6007 110.004 87.74 110.869 87.872C111.837 88.0333 112.629 88.2093 113.245 88.4C113.861 88.576 114.396 88.906 114.851 89.39C115.306 89.874 115.533 90.5487 115.533 91.414C115.533 92.1473 115.313 92.8 114.873 93.372C114.433 93.944 113.788 94.3913 112.937 94.714C112.101 95.022 111.104 95.176 109.945 95.176ZM125.284 94.428C124.947 94.6773 124.529 94.868 124.03 95C123.546 95.1173 123.033 95.176 122.49 95.176C121.082 95.176 119.99 94.8167 119.212 94.098C118.45 93.3793 118.068 92.3233 118.068 90.93V86.068H116.242V83.428H118.068V80.546H121.5V83.428H124.448V86.068H121.5V90.886C121.5 91.3847 121.625 91.7733 121.874 92.052C122.138 92.316 122.505 92.448 122.974 92.448C123.517 92.448 123.979 92.3013 124.36 92.008L125.284 94.428ZM127.211 83.164H130.643V95H127.211V83.164ZM128.927 81.514C128.296 81.514 127.783 81.3307 127.387 80.964C126.991 80.5973 126.793 80.1427 126.793 79.6C126.793 79.0573 126.991 78.6027 127.387 78.236C127.783 77.8693 128.296 77.686 128.927 77.686C129.558 77.686 130.071 77.862 130.467 78.214C130.863 78.566 131.061 79.006 131.061 79.534C131.061 80.106 130.863 80.5827 130.467 80.964C130.071 81.3307 129.558 81.514 128.927 81.514ZM139.548 95.176C138.287 95.176 137.15 94.9193 136.138 94.406C135.141 93.878 134.356 93.152 133.784 92.228C133.227 91.304 132.948 90.2553 132.948 89.082C132.948 87.9087 133.227 86.86 133.784 85.936C134.356 85.012 135.141 84.2933 136.138 83.78C137.15 83.252 138.287 82.988 139.548 82.988C140.795 82.988 141.88 83.252 142.804 83.78C143.743 84.2933 144.425 85.034 144.85 86.002L142.188 87.432C141.572 86.3467 140.685 85.804 139.526 85.804C138.631 85.804 137.891 86.0973 137.304 86.684C136.717 87.2707 136.424 88.07 136.424 89.082C136.424 90.094 136.717 90.8933 137.304 91.48C137.891 92.0667 138.631 92.36 139.526 92.36C140.699 92.36 141.587 91.8173 142.188 90.732L144.85 92.184C144.425 93.1227 143.743 93.856 142.804 94.384C141.88 94.912 140.795 95.176 139.548 95.176Z" fill="white"/>
</svg>
