<svg width="218" height="185" viewBox="0 0 218 185" fill="none" xmlns="http://www.w3.org/2000/svg">
<path d="M59.1773 75.0799C62.501 61.6838 82.9288 33.5219 113.93 24.0573C149.183 17.9599 169.514 42.4678 177.581 52.4677C185.647 62.4676 191.92 76.8321 193.589 88.7998C193.579 109.415 187.293 120.413 182.846 128.194C177.18 138.109 168.574 146.449 158.111 150.876C138.191 159.304 117.582 165.721 97.2572 154.105C84.437 146.778 70.5613 132.229 64.8039 119.006C60.1575 108.335 54.5065 93.9052 59.1773 75.0799Z" fill="#733A1F"/>
<path d="M101.34 88.504H96.4122V85.6H109.832V88.504H104.904V101H101.34V88.504ZM111.25 89.164H114.682V101H111.25V89.164ZM112.966 87.514C112.335 87.514 111.822 87.3307 111.426 86.964C111.03 86.5973 110.832 86.1427 110.832 85.6C110.832 85.0573 111.03 84.6027 111.426 84.236C111.822 83.8693 112.335 83.686 112.966 83.686C113.597 83.686 114.11 83.862 114.506 84.214C114.902 84.566 115.1 85.006 115.1 85.534C115.1 86.106 114.902 86.5827 114.506 86.964C114.11 87.3307 113.597 87.514 112.966 87.514ZM121.145 90.726C121.556 90.154 122.106 89.7213 122.795 89.428C123.499 89.1347 124.306 88.988 125.215 88.988V92.156C124.834 92.1267 124.577 92.112 124.445 92.112C123.463 92.112 122.693 92.3907 122.135 92.948C121.578 93.4907 121.299 94.312 121.299 95.412V101H117.867V89.164H121.145V90.726ZM138.742 95.126C138.742 95.17 138.72 95.478 138.676 96.05H129.722C129.884 96.7833 130.265 97.3627 130.866 97.788C131.468 98.2133 132.216 98.426 133.11 98.426C133.726 98.426 134.269 98.338 134.738 98.162C135.222 97.9713 135.67 97.678 136.08 97.282L137.906 99.262C136.792 100.538 135.164 101.176 133.022 101.176C131.688 101.176 130.507 100.919 129.48 100.406C128.454 99.878 127.662 99.152 127.104 98.228C126.547 97.304 126.268 96.2553 126.268 95.082C126.268 93.9233 126.54 92.882 127.082 91.958C127.64 91.0193 128.395 90.2933 129.348 89.78C130.316 89.252 131.394 88.988 132.582 88.988C133.741 88.988 134.79 89.2373 135.728 89.736C136.667 90.2347 137.4 90.9533 137.928 91.892C138.471 92.816 138.742 93.894 138.742 95.126ZM132.604 91.584C131.827 91.584 131.174 91.804 130.646 92.244C130.118 92.684 129.796 93.2853 129.678 94.048H135.508C135.391 93.3 135.068 92.706 134.54 92.266C134.012 91.8113 133.367 91.584 132.604 91.584ZM153.083 84.676V101H149.805V99.636C148.955 100.663 147.723 101.176 146.109 101.176C144.995 101.176 143.983 100.927 143.073 100.428C142.179 99.9293 141.475 99.218 140.961 98.294C140.448 97.37 140.191 96.2993 140.191 95.082C140.191 93.8647 140.448 92.794 140.961 91.87C141.475 90.946 142.179 90.2347 143.073 89.736C143.983 89.2373 144.995 88.988 146.109 88.988C147.62 88.988 148.801 89.4647 149.651 90.418V84.676H153.083ZM146.703 98.36C147.569 98.36 148.287 98.0667 148.859 97.48C149.431 96.8787 149.717 96.0793 149.717 95.082C149.717 94.0847 149.431 93.2927 148.859 92.706C148.287 92.1047 147.569 91.804 146.703 91.804C145.823 91.804 145.097 92.1047 144.525 92.706C143.953 93.2927 143.667 94.0847 143.667 95.082C143.667 96.0793 143.953 96.8787 144.525 97.48C145.097 98.0667 145.823 98.36 146.703 98.36Z" fill="white"/>
<path d="M77 73.3138C59.2786 56.2682 33.4806 72.1348 11.7767 81.3507C10.4173 76.3587 7.12793 75.575 8.38983 70.0025C9.41779 65.4632 7.94463 61.1233 9.27431 56.3757C9.98674 53.8319 10.0003 51.3448 10.9019 48.7437C11.3294 47.5102 14.5032 46.0237 15.4862 44.8924C17.2704 42.8391 23.4017 41.4814 25.9015 40.1349C30.0732 37.8879 34.775 34.9297 39.409 33.6677C66.6374 26.2527 95.1263 15.3218 123.245 13.0061C129.753 12.4701 135.635 10.4207 141.78 12.4823C148.929 14.8805 149.395 20.4906 153.537 24.8977C156.252 27.7857 156.993 35.5091 157.772 39.3613C158.698 43.9415 151.379 46.6798 147.387 47.767C141.24 49.4409 136.504 52.926 132.654 57.3566C129.885 60.5433 131.294 65.5333 130.169 69.1883C128.818 73.5778 124.155 75.2098 120.027 73.3138C116.458 71.6749 116.24 67.5628 112.868 65.5338C100.167 57.8932 103.511 85.0651 104.578 88.9856C107.311 99.02 108.698 109.01 111.396 118.921C113.41 126.124 111.953 139.012 104.578 142C93.3604 142 92.5 138 89.2116 130.54C89.1849 126.157 80.4425 85.4504 77 73.3138Z" fill="white" fill-opacity="0.1"/>
</svg>
